<svg width="452" height="452" viewBox="0 0 452 452" fill="none" xmlns="http://www.w3.org/2000/svg">
<path opacity="0.1" d="M225.543 389.692C316.2 389.692 389.691 316.2 389.691 225.544C389.691 134.888 316.2 61.396 225.543 61.396C134.887 61.396 61.3955 134.888 61.3955 225.544C61.3955 316.2 134.887 389.692 225.543 389.692Z" fill="#2957E8"/>
<path d="M213.534 352.56L203.962 351.505C202.942 351.387 202.13 350.566 202.04 349.547L200.939 337.332C200.921 337.106 200.732 336.935 200.506 336.935C200.272 336.935 200.082 337.106 200.064 337.332L198.964 349.547C198.873 350.566 198.062 351.387 197.042 351.505L187.479 352.56C187.253 352.587 187.082 352.777 187.082 352.993C187.082 353.219 187.253 353.408 187.479 353.435L197.042 354.491C198.062 354.608 198.873 355.429 198.964 356.449L200.064 368.664C200.082 368.89 200.272 369.061 200.506 369.061C200.732 369.061 200.921 368.89 200.939 368.664L202.04 356.449C202.13 355.429 202.942 354.608 203.962 354.491L213.534 353.435C213.75 353.408 213.922 353.219 213.922 352.993C213.922 352.777 213.75 352.587 213.534 352.56ZM203.862 353.616C202.428 353.778 201.291 354.933 201.165 356.367L200.506 363.711L199.839 356.367C199.712 354.933 198.576 353.778 197.141 353.616L191.539 352.993L197.141 352.38C198.576 352.217 199.712 351.063 199.839 349.619L200.506 342.284L201.165 349.619C201.291 351.063 202.428 352.217 203.862 352.38L209.465 352.993L203.862 353.616Z" fill="#2957E8"/>
<path d="M246.736 112.538L237.441 111.514C236.452 111.4 235.663 110.602 235.575 109.613L234.506 97.751C234.489 97.5317 234.304 97.3657 234.085 97.3657C233.857 97.3657 233.674 97.5317 233.656 97.751L232.587 109.613C232.499 110.602 231.711 111.4 230.721 111.514L221.434 112.538C221.215 112.565 221.049 112.749 221.049 112.959C221.049 113.178 221.216 113.362 221.434 113.388L230.721 114.413C231.711 114.527 232.499 115.324 232.587 116.314L233.656 128.176C233.673 128.395 233.857 128.561 234.085 128.561C234.304 128.561 234.489 128.395 234.506 128.176L235.575 116.314C235.662 115.324 236.451 114.527 237.441 114.413L246.736 113.388C246.947 113.362 247.114 113.178 247.114 112.959C247.113 112.749 246.947 112.565 246.736 112.538ZM237.345 113.563C235.952 113.721 234.848 114.843 234.725 116.236L234.085 123.367L233.437 116.236C233.314 114.843 232.211 113.721 230.817 113.563L225.376 112.959L230.817 112.363C232.21 112.206 233.313 111.084 233.437 109.682L234.085 102.56L234.725 109.682C234.848 111.084 235.951 112.206 237.345 112.363L242.785 112.959L237.345 113.563Z" fill="#2957E8"/>
<path d="M361.971 273.189L351.546 272.04C350.435 271.912 349.551 271.018 349.453 269.907L348.254 256.602C348.234 256.357 348.027 256.17 347.782 256.17C347.526 256.17 347.32 256.357 347.3 256.602L346.101 269.907C346.003 271.018 345.118 271.912 344.008 272.04L333.592 273.189C333.347 273.219 333.16 273.425 333.16 273.661C333.16 273.907 333.347 274.113 333.592 274.143L344.008 275.292C345.118 275.421 346.003 276.315 346.101 277.424L347.3 290.73C347.32 290.975 347.526 291.162 347.782 291.162C348.027 291.162 348.234 290.975 348.254 290.73L349.453 277.424C349.551 276.314 350.435 275.42 351.546 275.292L361.971 274.143C362.207 274.113 362.393 273.908 362.393 273.661C362.394 273.426 362.207 273.219 361.971 273.189ZM351.438 274.339C349.876 274.516 348.638 275.773 348.5 277.336L347.783 285.335L347.055 277.336C346.917 275.773 345.68 274.516 344.117 274.339L338.015 273.661L344.117 272.993C345.68 272.816 346.917 271.558 347.055 269.986L347.783 261.997L348.5 269.986C348.638 271.558 349.876 272.816 351.438 272.993L357.541 273.661L351.438 274.339Z" fill="#2957E8"/>
<path d="M128.394 184.495L118.822 183.44C117.802 183.322 116.99 182.501 116.9 181.482L115.799 169.267C115.781 169.041 115.592 168.87 115.366 168.87C115.132 168.87 114.942 169.041 114.924 169.267L113.824 181.482C113.733 182.501 112.921 183.322 111.902 183.44L102.339 184.495C102.113 184.522 101.942 184.712 101.942 184.928C101.942 185.154 102.113 185.343 102.339 185.37L111.902 186.426C112.921 186.543 113.733 187.364 113.824 188.384L114.924 200.599C114.942 200.825 115.132 200.996 115.366 200.996C115.592 200.996 115.781 200.825 115.799 200.599L116.9 188.384C116.99 187.364 117.802 186.543 118.822 186.426L128.394 185.37C128.61 185.343 128.782 185.154 128.782 184.928C128.782 184.712 128.61 184.522 128.394 184.495ZM118.722 185.551C117.288 185.713 116.151 186.868 116.025 188.302L115.366 195.646L114.699 188.302C114.572 186.868 113.436 185.713 112.001 185.551L106.399 184.928L112.001 184.315C113.436 184.152 114.572 182.998 114.699 181.554L115.366 174.22L116.025 181.554C116.151 182.998 117.288 184.152 118.722 184.315L124.325 184.928L118.722 185.551Z" fill="#2957E8"/>
<path d="M331.063 313.541L325.208 312.892C324.649 312.828 324.198 312.377 324.144 311.809L323.476 304.339C323.458 304.131 323.287 303.978 323.079 303.978C322.872 303.978 322.7 304.131 322.682 304.339L322.015 311.809C321.961 312.377 321.509 312.828 320.95 312.892L315.095 313.541C314.897 313.568 314.743 313.731 314.743 313.938C314.743 314.137 314.897 314.308 315.095 314.326L320.95 314.976C321.509 315.039 321.961 315.499 322.015 316.058L322.682 323.528C322.7 323.736 322.872 323.889 323.079 323.889C323.287 323.889 323.458 323.736 323.476 323.528L324.144 316.058C324.198 315.499 324.649 315.039 325.208 314.976L331.063 314.326C331.271 314.308 331.415 314.137 331.415 313.938C331.416 313.731 331.272 313.568 331.063 313.541ZM325.119 314.191C324.19 314.29 323.441 315.048 323.36 315.986L323.08 319.08L322.8 315.986C322.719 315.048 321.97 314.29 321.041 314.191L318.741 313.938L321.041 313.685C321.97 313.577 322.719 312.819 322.8 311.881L323.08 308.787L323.36 311.881C323.441 312.819 324.19 313.577 325.119 313.685L327.42 313.938L325.119 314.191Z" fill="#2957E8"/>
<path d="M151.208 138.795L145.353 138.146C144.794 138.083 144.342 137.632 144.288 137.063L143.621 129.593C143.603 129.386 143.431 129.232 143.224 129.232C143.016 129.232 142.845 129.386 142.827 129.593L142.159 137.063C142.105 137.632 141.654 138.083 141.095 138.146L135.24 138.795C135.041 138.823 134.888 138.985 134.888 139.192C134.888 139.391 135.041 139.562 135.24 139.58L141.095 140.23C141.654 140.293 142.105 140.753 142.159 141.313L142.827 148.783C142.845 148.99 143.016 149.143 143.224 149.143C143.431 149.143 143.603 148.99 143.621 148.783L144.288 141.313C144.342 140.753 144.794 140.293 145.353 140.23L151.208 139.58C151.416 139.562 151.56 139.391 151.56 139.192C151.56 138.985 151.416 138.823 151.208 138.795ZM145.263 139.445C144.333 139.544 143.585 140.302 143.503 141.24L143.224 144.335L142.944 141.24C142.863 140.302 142.114 139.544 141.185 139.445L138.884 139.192L141.185 138.94C142.114 138.832 142.863 138.074 142.944 137.135L143.224 134.041L143.503 137.135C143.585 138.074 144.333 138.832 145.263 138.94L147.563 139.192L145.263 139.445Z" fill="#2957E8"/>
<g opacity="0.7">
<path d="M213.534 352.56L203.962 351.505C202.942 351.387 202.13 350.566 202.04 349.547L200.939 337.332C200.921 337.106 200.732 336.935 200.506 336.935C200.272 336.935 200.082 337.106 200.064 337.332L198.964 349.547C198.873 350.566 198.062 351.387 197.042 351.505L187.479 352.56C187.253 352.587 187.082 352.777 187.082 352.993C187.082 353.219 187.253 353.408 187.479 353.435L197.042 354.491C198.062 354.608 198.873 355.429 198.964 356.449L200.064 368.664C200.082 368.89 200.272 369.061 200.506 369.061C200.732 369.061 200.921 368.89 200.939 368.664L202.04 356.449C202.13 355.429 202.942 354.608 203.962 354.491L213.534 353.435C213.75 353.408 213.922 353.219 213.922 352.993C213.922 352.777 213.75 352.587 213.534 352.56ZM203.862 353.616C202.428 353.778 201.291 354.933 201.165 356.367L200.506 363.711L199.839 356.367C199.712 354.933 198.576 353.778 197.141 353.616L191.539 352.993L197.141 352.38C198.576 352.217 199.712 351.063 199.839 349.619L200.506 342.284L201.165 349.619C201.291 351.063 202.428 352.217 203.862 352.38L209.465 352.993L203.862 353.616Z" fill="white"/>
<path d="M246.736 112.538L237.441 111.514C236.452 111.4 235.663 110.602 235.575 109.613L234.506 97.751C234.489 97.5317 234.304 97.3657 234.085 97.3657C233.857 97.3657 233.674 97.5317 233.656 97.751L232.587 109.613C232.499 110.602 231.711 111.4 230.721 111.514L221.434 112.538C221.215 112.565 221.049 112.749 221.049 112.959C221.049 113.178 221.216 113.362 221.434 113.388L230.721 114.413C231.711 114.527 232.499 115.324 232.587 116.314L233.656 128.176C233.673 128.395 233.857 128.561 234.085 128.561C234.304 128.561 234.489 128.395 234.506 128.176L235.575 116.314C235.662 115.324 236.451 114.527 237.441 114.413L246.736 113.388C246.947 113.362 247.114 113.178 247.114 112.959C247.113 112.749 246.947 112.565 246.736 112.538ZM237.345 113.563C235.952 113.721 234.848 114.843 234.725 116.236L234.085 123.367L233.437 116.236C233.314 114.843 232.211 113.721 230.817 113.563L225.376 112.959L230.817 112.363C232.21 112.206 233.313 111.084 233.437 109.682L234.085 102.56L234.725 109.682C234.848 111.084 235.951 112.206 237.345 112.363L242.785 112.959L237.345 113.563Z" fill="white"/>
<path d="M361.971 273.189L351.546 272.04C350.435 271.912 349.551 271.018 349.453 269.907L348.254 256.602C348.234 256.357 348.027 256.17 347.782 256.17C347.526 256.17 347.32 256.357 347.3 256.602L346.101 269.907C346.003 271.018 345.118 271.912 344.008 272.04L333.592 273.189C333.347 273.219 333.16 273.425 333.16 273.661C333.16 273.907 333.347 274.113 333.592 274.143L344.008 275.292C345.118 275.421 346.003 276.315 346.101 277.424L347.3 290.73C347.32 290.975 347.526 291.162 347.782 291.162C348.027 291.162 348.234 290.975 348.254 290.73L349.453 277.424C349.551 276.314 350.435 275.42 351.546 275.292L361.971 274.143C362.207 274.113 362.393 273.908 362.393 273.661C362.394 273.426 362.207 273.219 361.971 273.189ZM351.438 274.339C349.876 274.516 348.638 275.773 348.5 277.336L347.783 285.335L347.055 277.336C346.917 275.773 345.68 274.516 344.117 274.339L338.015 273.661L344.117 272.993C345.68 272.816 346.917 271.558 347.055 269.986L347.783 261.997L348.5 269.986C348.638 271.558 349.876 272.816 351.438 272.993L357.541 273.661L351.438 274.339Z" fill="white"/>
<path d="M128.394 184.495L118.822 183.44C117.802 183.322 116.99 182.501 116.9 181.482L115.799 169.267C115.781 169.041 115.592 168.87 115.366 168.87C115.132 168.87 114.942 169.041 114.924 169.267L113.824 181.482C113.733 182.501 112.921 183.322 111.902 183.44L102.339 184.495C102.113 184.522 101.942 184.712 101.942 184.928C101.942 185.154 102.113 185.343 102.339 185.37L111.902 186.426C112.921 186.543 113.733 187.364 113.824 188.384L114.924 200.599C114.942 200.825 115.132 200.996 115.366 200.996C115.592 200.996 115.781 200.825 115.799 200.599L116.9 188.384C116.99 187.364 117.802 186.543 118.822 186.426L128.394 185.37C128.61 185.343 128.782 185.154 128.782 184.928C128.782 184.712 128.61 184.522 128.394 184.495ZM118.722 185.551C117.288 185.713 116.151 186.868 116.025 188.302L115.366 195.646L114.699 188.302C114.572 186.868 113.436 185.713 112.001 185.551L106.399 184.928L112.001 184.315C113.436 184.152 114.572 182.998 114.699 181.554L115.366 174.22L116.025 181.554C116.151 182.998 117.288 184.152 118.722 184.315L124.325 184.928L118.722 185.551Z" fill="white"/>
<path d="M331.063 313.541L325.208 312.892C324.649 312.828 324.198 312.377 324.144 311.809L323.476 304.339C323.458 304.131 323.287 303.978 323.079 303.978C322.872 303.978 322.7 304.131 322.682 304.339L322.015 311.809C321.961 312.377 321.509 312.828 320.95 312.892L315.095 313.541C314.897 313.568 314.743 313.731 314.743 313.938C314.743 314.137 314.897 314.308 315.095 314.326L320.95 314.976C321.509 315.039 321.961 315.499 322.015 316.058L322.682 323.528C322.7 323.736 322.872 323.889 323.079 323.889C323.287 323.889 323.458 323.736 323.476 323.528L324.144 316.058C324.198 315.499 324.649 315.039 325.208 314.976L331.063 314.326C331.271 314.308 331.415 314.137 331.415 313.938C331.416 313.731 331.272 313.568 331.063 313.541ZM325.119 314.191C324.19 314.29 323.441 315.048 323.36 315.986L323.08 319.08L322.8 315.986C322.719 315.048 321.97 314.29 321.041 314.191L318.741 313.938L321.041 313.685C321.97 313.577 322.719 312.819 322.8 311.881L323.08 308.787L323.36 311.881C323.441 312.819 324.19 313.577 325.119 313.685L327.42 313.938L325.119 314.191Z" fill="white"/>
<path d="M151.208 138.795L145.353 138.146C144.794 138.083 144.342 137.632 144.288 137.063L143.621 129.593C143.603 129.386 143.431 129.232 143.224 129.232C143.016 129.232 142.845 129.386 142.827 129.593L142.159 137.063C142.105 137.632 141.654 138.083 141.095 138.146L135.24 138.795C135.041 138.823 134.888 138.985 134.888 139.192C134.888 139.391 135.041 139.562 135.24 139.58L141.095 140.23C141.654 140.293 142.105 140.753 142.159 141.313L142.827 148.783C142.845 148.99 143.016 149.143 143.224 149.143C143.431 149.143 143.603 148.99 143.621 148.783L144.288 141.313C144.342 140.753 144.794 140.293 145.353 140.23L151.208 139.58C151.416 139.562 151.56 139.391 151.56 139.192C151.56 138.985 151.416 138.823 151.208 138.795ZM145.263 139.445C144.333 139.544 143.585 140.302 143.503 141.24L143.224 144.335L142.944 141.24C142.863 140.302 142.114 139.544 141.185 139.445L138.884 139.192L141.185 138.94C142.114 138.832 142.863 138.074 142.944 137.135L143.224 134.041L143.503 137.135C143.585 138.074 144.333 138.832 145.263 138.94L147.563 139.192L145.263 139.445Z" fill="white"/>
</g>
<path d="M225.544 46.1795C224.796 46.1795 224.19 45.5742 224.19 44.8263V22.6238C224.19 21.8759 224.796 21.2705 225.544 21.2705C226.292 21.2705 226.897 21.8759 226.897 22.6238V44.8263C226.897 45.5733 226.292 46.1795 225.544 46.1795Z" fill="#2957E8"/>
<path d="M315.901 70.3915C315.671 70.3915 315.438 70.3328 315.225 70.2092C314.577 69.8357 314.356 69.0075 314.73 68.3607L325.832 49.1326C326.206 48.484 327.035 48.2638 327.681 48.6373C328.328 49.0108 328.549 49.839 328.176 50.4859L317.074 69.7139C316.824 70.1488 316.368 70.3915 315.901 70.3915Z" fill="#2957E8"/>
<path d="M382.051 136.539C381.584 136.539 381.129 136.296 380.878 135.862C380.505 135.215 380.726 134.387 381.374 134.013L400.602 122.912C401.249 122.539 402.077 122.759 402.45 123.408C402.824 124.054 402.603 124.883 401.955 125.256L382.727 136.357C382.513 136.48 382.28 136.539 382.051 136.539Z" fill="#2957E8"/>
<path d="M428.464 226.897H406.262C405.515 226.897 404.909 226.292 404.909 225.544C404.909 224.796 405.515 224.19 406.262 224.19H428.464C429.211 224.19 429.817 224.796 429.817 225.544C429.817 226.292 429.211 226.897 428.464 226.897Z" fill="#2957E8"/>
<path d="M401.276 328.357C401.046 328.357 400.814 328.299 400.601 328.175L381.373 317.074C380.725 316.7 380.504 315.872 380.877 315.225C381.251 314.577 382.08 314.356 382.726 314.73L401.954 325.831C402.602 326.205 402.823 327.033 402.449 327.68C402.198 328.114 401.744 328.357 401.276 328.357Z" fill="#2957E8"/>
<path d="M327.005 402.631C326.538 402.631 326.083 402.389 325.832 401.954L314.73 382.726C314.356 382.079 314.577 381.251 315.225 380.877C315.871 380.504 316.7 380.724 317.074 381.372L328.176 400.6C328.549 401.247 328.328 402.075 327.681 402.449C327.468 402.573 327.235 402.631 327.005 402.631Z" fill="#2957E8"/>
<path d="M225.544 429.817C224.796 429.817 224.19 429.211 224.19 428.464V406.261C224.19 405.513 224.796 404.908 225.544 404.908C226.292 404.908 226.897 405.513 226.897 406.261V428.464C226.897 429.211 226.292 429.817 225.544 429.817Z" fill="#2957E8"/>
<path d="M124.082 402.631C123.853 402.631 123.621 402.573 123.408 402.449C122.761 402.075 122.539 401.247 122.912 400.6L134.014 381.372C134.388 380.726 135.215 380.503 135.862 380.877C136.509 381.251 136.731 382.079 136.357 382.726L125.256 401.954C125.005 402.388 124.551 402.631 124.082 402.631Z" fill="#2957E8"/>
<path d="M49.8107 328.357C49.3424 328.357 48.8886 328.114 48.6378 327.68C48.2634 327.033 48.4863 326.204 49.1331 325.831L68.3612 314.73C69.0098 314.356 69.8362 314.578 70.2097 315.225C70.5832 315.872 70.3613 316.7 69.7144 317.074L50.4864 328.175C50.2735 328.298 50.0407 328.357 49.8107 328.357Z" fill="#2957E8"/>
<path d="M44.8263 226.897H22.6238C21.8759 226.897 21.2705 226.292 21.2705 225.544C21.2705 224.796 21.8759 224.19 22.6238 224.19H44.8263C45.5742 224.19 46.1795 224.796 46.1795 225.544C46.1795 226.292 45.5733 226.897 44.8263 226.897Z" fill="#2957E8"/>
<path d="M69.036 136.539C68.8068 136.539 68.5741 136.48 68.3603 136.356L49.1322 125.255C48.4854 124.882 48.2634 124.054 48.6369 123.407C49.0113 122.76 49.8386 122.537 50.4855 122.911L69.7135 134.013C70.3604 134.386 70.5823 135.214 70.2088 135.861C69.958 136.295 69.5033 136.539 69.036 136.539Z" fill="#2957E8"/>
<path d="M135.186 70.3913C134.719 70.3913 134.264 70.1486 134.013 69.7137L122.912 50.4866C122.538 49.8397 122.761 49.0115 123.408 48.638C124.056 48.2636 124.883 48.4856 125.256 49.1333L136.357 68.3614C136.731 69.0082 136.509 69.8364 135.862 70.2099C135.648 70.3326 135.415 70.3913 135.186 70.3913Z" fill="#2957E8"/>
<path d="M322.406 126.467L311.152 106.801L353.373 82.2855C353.385 82.2783 353.399 82.2702 353.412 82.263L353.458 82.2359L353.459 82.2377C360.537 78.1905 370.293 78.7941 381.067 85.0146C402.683 97.4953 420.207 127.847 420.207 152.808C420.207 165.314 415.807 174.092 408.699 178.17L408.699 178.172L366.135 202.884L354.573 182.679C338.005 169.906 324.963 147.16 322.406 126.467Z" fill="#455A64"/>
<path d="M338.569 109.688C360.185 122.169 377.709 152.52 377.709 177.481C377.709 202.442 360.186 212.559 338.57 200.079C316.954 187.598 299.43 157.246 299.43 132.286C299.429 107.325 316.953 97.2084 338.569 109.688Z" fill="#263238"/>
<path d="M384.109 173.912C384.109 177.791 386.151 179.757 388.671 178.302C391.191 176.847 393.233 172.523 393.233 168.643C393.233 164.764 391.191 162.798 388.671 164.253C386.151 165.709 384.109 170.033 384.109 173.912Z" fill="#263238"/>
<path d="M402.446 164.615C402.446 168.494 404.489 170.46 407.009 169.005C409.528 167.55 411.571 163.226 411.571 159.346C411.571 155.467 409.528 153.501 407.009 154.956C404.489 156.412 402.446 160.736 402.446 164.615Z" fill="#263238"/>
<path d="M385.595 174.318C385.595 178.197 387.637 180.163 390.157 178.708C392.677 177.253 394.719 172.928 394.719 169.049C394.719 165.17 392.677 163.204 390.157 164.659C387.637 166.114 385.595 170.438 385.595 174.318Z" fill="#2957E8"/>
<path d="M403.932 165.022C403.932 168.901 405.975 170.867 408.494 169.412C411.014 167.957 413.057 163.633 413.057 159.753C413.057 155.874 411.014 153.908 408.494 155.363C405.975 156.817 403.932 161.142 403.932 165.022Z" fill="#2957E8"/>
<path d="M314.122 125.744C334.606 137.571 351.212 166.333 351.212 189.985C351.212 213.638 334.606 223.226 314.122 211.399C293.639 199.573 277.033 170.81 277.033 147.157C277.033 123.505 293.639 113.918 314.122 125.744Z" fill="#E0E0E0"/>
<path d="M97.3774 243.211C122.141 231.039 150.593 214.059 161.841 207.818C175.53 200.222 191.301 186.911 199.627 185.145L219.159 220.16L292.086 240.003L181.463 296.693L175.038 301.192C161.207 310.905 150.45 319.484 136.113 330.982L97.3774 243.211Z" fill="#FFBDA7"/>
<path d="M186.586 257.285C198.959 262.485 207.203 257.051 207.203 257.051C207.203 257.051 202.789 275.103 189.598 288.817C185.978 292.58 187.503 292.942 191.613 291.492L231.48 271.062L239.803 233.251L219.16 220.16C218.896 221.905 216.17 224.943 216.17 224.943C214.394 236.708 210.023 248.26 210.023 248.26C210.023 248.26 200.452 259.3 186.586 257.285Z" fill="#F0997A"/>
<path d="M350.863 201.712C350.863 201.712 318.944 218.303 312.981 227.722C307.018 237.141 292.52 270.855 285.293 278.081C278.076 285.299 261.62 300.167 253.113 305.607C244.199 311.299 240.699 312.436 232.94 310.587C228.546 312.797 217.558 315.612 214.103 309.811C208.762 313.744 196.979 313.374 194.156 308.034C189.753 310.542 176.545 308.431 175.038 301.196L181.462 296.693C189.103 289.404 198.766 280.174 202.392 273.769C210.747 260.011 217.558 235.255 219.155 220.162L199.623 185.148C199.127 185.257 198.603 185.401 198.053 185.59C197.8 185.681 197.539 185.771 197.277 185.87C190.421 188.486 180.145 196.29 169.986 202.867C173.902 197.508 179.044 190.408 184.52 183.353C197.836 166.203 201.4 165.292 223.981 158.832C251.877 150.857 262.08 145.344 268.35 142.719C279.186 138.181 308.091 116.502 308.091 116.502L350.863 201.712Z" fill="#B16668"/>
<path d="M350.277 201.984C364.093 196.104 366.868 171.541 356.475 147.119C346.082 122.698 326.457 107.667 312.641 113.546C298.825 119.426 296.05 143.989 306.443 168.411C316.836 192.832 336.461 207.863 350.277 201.984Z" fill="#B16668"/>
<path d="M225.964 268.604C214.106 289.757 196.758 304.179 186.489 305.313C178.822 306.159 175.039 301.191 175.039 301.191C176.552 308.424 189.76 310.543 194.154 308.033C199.87 306.785 217.31 289.997 225.964 268.604Z" fill="#9A4A4D"/>
<path d="M244.112 272.811C237.261 285.07 220.294 302.347 210.629 307.241C204.99 310.096 197.523 310.389 194.154 308.034C196.979 313.37 208.77 313.743 214.106 309.812C227.835 299.496 237.381 286.992 244.112 272.811Z" fill="#9A4A4D"/>
<path d="M262.621 277.524C254.087 289.276 240.98 301.992 231.313 307.304C221.645 312.615 215.999 310.886 214.107 309.811C217.56 315.612 228.547 312.786 232.941 310.59C236.325 308.975 255.891 292.16 262.621 277.524Z" fill="#9A4A4D"/>
<path d="M134.198 331.982C148.014 326.103 150.789 301.539 140.396 277.118C130.004 252.696 110.379 237.665 96.5627 243.545C82.7469 249.424 79.9719 273.988 90.3646 298.409C100.757 322.831 120.382 337.862 134.198 331.982Z" fill="#F0997A"/>
<path d="M261.759 302.188C256.264 299.305 253.967 293.671 257.754 287.856C261.54 282.042 268.436 282.448 273.033 285.016C269.652 279.337 270.058 274.064 273.844 269.737C277.63 265.41 285.607 265.171 290.34 268.604C285.067 262.165 283.715 257.432 286.689 251.483C289.663 245.534 297.822 244.231 303.456 247.968C310.556 252.677 311.705 257.298 309 263.112C306.295 268.926 300.481 273.388 293.99 270.819C296.829 276.227 295.748 280.825 292.638 284.476C289.528 288.127 283.125 292.773 277.311 289.108C278.393 293.285 277.13 296.759 274.426 299.869C271.722 302.979 267.201 305.043 261.759 302.188Z" fill="#FFBDA7"/>
<path d="M322.93 252.287C318.564 252.43 309.411 249.717 303.112 246.687C303.112 246.687 309.992 232.901 311.17 230.833C312.347 228.764 313.93 225.808 317.156 223.142L328.363 229.62L322.93 252.287Z" fill="#F0997A"/>
<path d="M332.707 241.128C331.577 250.517 327.221 253.103 320.082 252.083C316.861 251.623 310.239 247.015 310.345 238.825C310.424 232.773 316.796 226.927 323.165 227.802C329.302 228.647 333.782 232.201 332.707 241.128Z" fill="#FFBDA7"/>
<path opacity="0.2" d="M294.926 266.118C296.11 260.98 300.606 255.154 304.921 253.504C311.245 259.017 303.897 270.985 294.926 266.118Z" fill="white"/>
<path opacity="0.3" d="M305.662 254.264C305.437 254.001 305.196 253.745 304.921 253.504C300.606 255.154 296.11 260.98 294.926 266.118C295.203 266.267 295.477 266.401 295.75 266.52C297.305 261.755 302.22 255.795 305.662 254.264Z" fill="white"/>
<path opacity="0.2" d="M318.93 246.589C318.193 241.368 320.3 234.317 323.737 231.23C331.617 234.108 329.05 247.915 318.93 246.589Z" fill="white"/>
<path opacity="0.3" d="M324.701 231.673C324.397 231.508 324.08 231.356 323.737 231.23C320.301 234.317 318.193 241.368 318.931 246.589C319.243 246.63 319.548 246.656 319.845 246.669C319.586 241.663 322.037 234.337 324.701 231.673Z" fill="white"/>
<path opacity="0.2" d="M278.034 283.847C279.738 279.208 284.687 274.532 288.997 273.772C294.432 280.158 286.073 290.114 278.034 283.847Z" fill="white"/>
<path opacity="0.3" d="M289.621 274.629C289.435 274.338 289.234 274.051 288.997 273.773C284.686 274.533 279.738 279.208 278.034 283.848C278.282 284.041 278.53 284.219 278.778 284.381C280.795 280.163 286.158 275.438 289.621 274.629Z" fill="white"/>
<path opacity="0.2" d="M263.485 299.309C264.612 295.263 268.484 290.966 272.083 290.029C277.121 295.066 270.72 304.068 263.485 299.309Z" fill="white"/>
<path opacity="0.3" d="M272.67 290.711C272.493 290.478 272.303 290.248 272.083 290.029C268.484 290.966 264.612 295.263 263.485 299.309C263.708 299.456 263.931 299.588 264.152 299.709C265.572 296 269.793 291.633 272.67 290.711Z" fill="white"/>
<path d="M302.675 247.505C297.093 244.369 289.531 245.801 286.69 251.483C283.715 257.433 285.068 262.165 290.341 268.604C285.608 265.172 277.63 265.41 273.845 269.737C270.058 274.064 269.653 279.337 273.034 285.016C268.436 282.447 261.54 282.042 257.754 287.855C254.869 292.286 255.522 296.608 258.426 299.692C257.093 297.322 256.195 291.339 261.162 287.424C266.139 283.5 272.469 288.073 274.323 285.838C276.177 283.603 272.284 276.209 276.825 271.298C281.367 266.385 288.689 271.205 291.191 269.537C293.693 267.868 288.039 261.288 289.245 255.82C290.446 250.36 296.085 246.103 302.675 247.505Z" fill="#F0997A"/>
<path d="M291.371 209.993C290.35 207.066 286.454 205.626 277.592 198.02C269.009 190.655 262.207 183.358 253.287 182.039C249.073 181.416 237.741 182.166 225.964 183.037C215.876 183.783 203.47 184.331 199.627 185.146C204.218 197.156 211.85 208.986 219.16 220.161C227.738 220.161 243.349 216.502 251.519 210.607C261.612 216.011 263.922 218.97 274.076 220.164C286.945 221.678 292.548 213.363 291.371 209.993Z" fill="#FFBDA7"/>
<path d="M272.095 203.089C272.095 203.089 281.595 209.042 284.867 209.992C289.622 211.374 291.372 209.992 291.372 209.992C291.372 209.992 291.707 207.82 284.982 203.204C278.257 198.587 277.053 197.553 277.053 197.553C277.053 197.553 274.511 198.026 272.095 203.089Z" fill="#FFBDA7"/>
<path opacity="0.2" d="M272.095 203.089C272.095 203.089 281.595 209.042 284.867 209.992C289.622 211.374 291.372 209.992 291.372 209.992C291.372 209.992 291.707 207.82 284.982 203.204C278.257 198.587 277.053 197.553 277.053 197.553C277.053 197.553 274.511 198.026 272.095 203.089Z" fill="white"/>
<path opacity="0.2" d="M273.807 204.141C277.499 201.928 279.214 200.491 279.976 199.715C277.602 198.024 277.052 197.555 277.052 197.555C277.052 197.555 274.51 198.027 272.094 203.09C272.094 203.09 272.769 203.511 273.807 204.141Z" fill="white"/>
<path d="M274.754 220.219C274.538 220.219 274.307 220.192 274.077 220.164C263.927 218.972 261.61 216.005 251.516 210.611C243.345 216.506 227.736 220.164 219.158 220.164C218.818 223.417 218.223 227.116 217.436 231.046L213.62 236.84C215.775 228.792 216.972 220.713 215.942 219.358C214.913 218.003 211.325 216.087 208.859 211.276C211.461 213.146 213.805 215.152 216.745 216.371C216.935 216.452 217.125 216.52 217.328 216.587C219.713 217.468 223.949 217.779 227.587 217.287C239.802 215.631 247.31 210.62 249.505 209.075C248.115 207.154 247.536 204.891 247.225 202.463C250.1 207.486 253.079 209.272 255.729 211.194C262.486 216.094 271.279 219.626 274.754 220.219Z" fill="#F0997A"/>
<path d="M372.554 177.665C372.554 189.511 368.382 197.829 361.644 201.701L340.245 214.059V214.05C347.019 210.204 351.209 201.869 351.209 189.987C351.209 166.33 334.609 137.566 314.127 125.747C304.01 119.908 294.836 119.29 288.151 123.012L288.142 123.003L309.223 110.839C309.232 110.83 309.241 110.822 309.258 110.813L309.302 110.787C312.098 109.19 315.335 108.361 318.899 108.361C323.882 108.361 329.51 109.984 335.463 113.424C355.945 125.253 372.554 154.008 372.554 177.665Z" fill="#F5F5F5"/>
<path d="M372.555 177.665C372.555 189.511 368.382 197.829 361.644 201.701L340.245 214.059V214.05C347.02 210.204 351.209 201.869 351.209 189.987C351.209 186.265 350.794 182.419 350.027 178.529L371.364 166.207C372.14 170.098 372.555 173.944 372.555 177.665Z" fill="#EBEBEB"/>
<path d="M106.134 247.073C126.618 258.9 143.224 287.661 143.224 311.314C143.224 334.967 126.618 344.555 106.134 332.728C85.6503 320.901 69.0449 292.139 69.0449 268.487C69.0449 244.834 85.6503 235.246 106.134 247.073Z" fill="#E0E0E0"/>
<path d="M164.566 298.993C164.566 310.84 160.394 319.157 153.655 323.029L132.257 335.387V335.378C139.031 331.532 143.221 323.197 143.221 311.315C143.221 287.658 126.621 258.894 106.139 247.075C96.0217 241.236 86.8484 240.618 80.1623 244.34L80.1533 244.331L101.234 232.167C101.243 232.158 101.252 232.149 101.27 232.141L101.314 232.115C104.11 230.518 107.347 229.689 110.91 229.689C115.894 229.689 121.522 231.312 127.475 234.752C147.956 246.581 164.566 275.337 164.566 298.993Z" fill="#F5F5F5"/>
<path d="M164.566 298.993C164.566 310.839 160.394 319.156 153.656 323.029L132.257 335.386V335.377C139.031 331.531 143.221 323.196 143.221 311.315C143.221 307.592 142.806 303.746 142.039 299.857L163.376 287.535C164.151 291.425 164.566 295.271 164.566 298.993Z" fill="#EBEBEB"/>
<path d="M50.5403 284.38L39.2866 264.714L81.5075 240.198C81.5201 240.191 81.5336 240.183 81.5463 240.176L81.5932 240.149L81.5941 240.151C88.6716 236.103 98.4278 236.707 109.202 242.928C130.818 255.407 148.341 285.76 148.341 310.721C148.341 323.227 143.942 332.005 136.833 336.082L136.834 336.084L94.2696 360.796L82.7074 340.592C66.1398 327.819 53.098 305.073 50.5403 284.38Z" fill="#455A64"/>
<path d="M66.704 267.601C88.3201 280.082 105.844 310.434 105.844 335.394C105.844 360.355 88.321 370.473 66.7049 357.992C45.0888 345.511 27.5649 315.159 27.5649 290.199C27.564 265.238 45.0879 255.121 66.704 267.601Z" fill="#263238"/>
<path d="M112.243 331.825C112.243 335.704 114.286 337.67 116.805 336.215C119.325 334.761 121.368 330.436 121.368 326.556C121.368 322.677 119.325 320.711 116.805 322.166C114.286 323.622 112.243 327.946 112.243 331.825Z" fill="#263238"/>
<path d="M130.581 322.528C130.581 326.408 132.623 328.373 135.143 326.918C137.663 325.463 139.705 321.139 139.705 317.26C139.705 313.38 137.663 311.414 135.143 312.87C132.624 314.325 130.581 318.649 130.581 322.528Z" fill="#263238"/>
<path d="M113.73 332.231C113.73 336.11 115.773 338.076 118.292 336.621C120.812 335.167 122.855 330.841 122.855 326.962C122.855 323.083 120.812 321.117 118.292 322.572C115.773 324.027 113.73 328.352 113.73 332.231Z" fill="#2957E8"/>
<path d="M132.066 322.935C132.066 326.814 134.109 328.78 136.629 327.325C139.148 325.871 141.191 321.546 141.191 317.666C141.191 313.787 139.148 311.821 136.629 313.276C134.11 314.731 132.066 319.055 132.066 322.935Z" fill="#2957E8"/>
</svg>
