<svg width="16" height="16" viewBox="0 0 16 16" fill="none" xmlns="http://www.w3.org/2000/svg">
<path fill-rule="evenodd" clip-rule="evenodd" d="M8.00065 14.6666C11.6827 14.6666 14.6673 11.6819 14.6673 7.99992C14.6673 4.31792 11.6827 1.33325 8.00065 1.33325C4.31865 1.33325 1.33398 4.31792 1.33398 7.99992C1.33398 11.6819 4.31865 14.6666 8.00065 14.6666ZM8.50065 5.99992C8.50065 5.86731 8.44797 5.74013 8.3542 5.64637C8.26044 5.5526 8.13326 5.49992 8.00065 5.49992C7.86804 5.49992 7.74087 5.5526 7.6471 5.64637C7.55333 5.74013 7.50065 5.86731 7.50065 5.99992V7.49992H6.00065C5.86804 7.49992 5.74087 7.5526 5.6471 7.64637C5.55333 7.74013 5.50065 7.86731 5.50065 7.99992C5.50065 8.13253 5.55333 8.2597 5.6471 8.35347C5.74087 8.44724 5.86804 8.49992 6.00065 8.49992H7.50065V9.99992C7.50065 10.1325 7.55333 10.2597 7.6471 10.3535C7.74087 10.4472 7.86804 10.4999 8.00065 10.4999C8.13326 10.4999 8.26044 10.4472 8.3542 10.3535C8.44797 10.2597 8.50065 10.1325 8.50065 9.99992V8.49992H10.0007C10.1333 8.49992 10.2604 8.44724 10.3542 8.35347C10.448 8.2597 10.5007 8.13253 10.5007 7.99992C10.5007 7.86731 10.448 7.74013 10.3542 7.64637C10.2604 7.5526 10.1333 7.49992 10.0007 7.49992H8.50065V5.99992Z" fill="white"/>
</svg>
