<svg width="16" height="16" viewBox="0 0 16 16" fill="none" xmlns="http://www.w3.org/2000/svg">
<path fill-rule="evenodd" clip-rule="evenodd" d="M8.16732 1.88925C7.86065 1.83725 7.44198 1.83325 6.68732 1.83325C5.40932 1.83325 4.50065 1.83459 3.81265 1.92659C3.13798 2.01659 2.75065 2.18659 2.46865 2.46792C2.18665 2.74925 2.01732 3.13658 1.92732 3.80725C1.83532 4.49258 1.83398 5.39525 1.83398 6.66725V9.33392C1.83398 10.6046 1.83532 11.5073 1.92732 12.1926C2.01732 12.8633 2.18665 13.2499 2.46865 13.5326C2.75065 13.8139 3.13732 13.9833 3.80798 14.0733C4.49332 14.1659 5.39598 14.1666 6.66732 14.1666H9.33398C10.6053 14.1666 11.5087 14.1653 12.194 14.0733C12.864 13.9833 13.2507 13.8139 13.5327 13.5319C13.8147 13.2499 13.984 12.8633 14.074 12.1926C14.166 11.5079 14.1673 10.6046 14.1673 9.33325V9.04192C14.1673 8.01792 14.1607 7.53258 14.0513 7.16658H11.9647C11.2093 7.16658 10.5927 7.16658 10.1047 7.10125C9.59598 7.03259 9.15465 6.88458 8.80198 6.53192C8.44932 6.17925 8.30132 5.73858 8.23265 5.22858C8.16732 4.74192 8.16732 4.12459 8.16732 3.36859V1.88925ZM9.16732 2.40659V3.33325C9.16732 4.13325 9.16865 4.68259 9.22398 5.09525C9.27732 5.49392 9.37332 5.68925 9.50932 5.82459C9.64532 5.95992 9.83998 6.05658 10.2387 6.10992C10.6513 6.16525 11.2007 6.16658 12.0007 6.16658H13.3473C13.0915 5.923 12.8314 5.68385 12.5673 5.44925L9.92798 3.07392C9.67902 2.8463 9.42541 2.6238 9.16732 2.40659ZM6.78398 0.833252C7.70732 0.833252 8.30398 0.833252 8.85265 1.04325C9.40132 1.25392 9.84265 1.65125 10.526 2.26659L10.5973 2.33059L13.236 4.70592L13.3193 4.78059C14.1087 5.49058 14.6193 5.94992 14.8933 6.56592C15.1673 7.18192 15.168 7.86859 15.1673 8.92992V9.37058C15.1673 10.5959 15.1673 11.5666 15.0653 12.3259C14.96 13.1073 14.7386 13.7399 14.24 14.2393C13.7407 14.7379 13.108 14.9593 12.3267 15.0646C11.5667 15.1666 10.5967 15.1666 9.37132 15.1666H6.62998C5.40465 15.1666 4.43398 15.1666 3.67465 15.0646C2.89332 14.9593 2.26065 14.7379 1.76132 14.2393C1.26265 13.7399 1.04132 13.1073 0.935984 12.3259C0.833984 11.5659 0.833984 10.5959 0.833984 9.37058V6.62992C0.833984 5.40458 0.833984 4.43392 0.935984 3.67459C1.04132 2.89325 1.26265 2.26059 1.76132 1.76125C2.26132 1.26192 2.89532 1.04125 3.67998 0.935919C4.44265 0.833919 5.41798 0.833919 6.64998 0.833919H6.78465" fill="#717E8C"/>
</svg>
