<svg width="16" height="16" viewBox="0 0 16 16" fill="none" xmlns="http://www.w3.org/2000/svg">
<path fill-rule="evenodd" clip-rule="evenodd" d="M9.33398 14.6667H6.66732C4.15332 14.6667 2.89598 14.6667 2.11532 13.8853C1.33465 13.104 1.33398 11.8473 1.33398 9.33333V6.66666C1.33398 4.15266 1.33398 2.89533 2.11532 2.11466C2.89665 1.33399 4.15998 1.33333 6.68732 1.33333C7.09132 1.33333 7.41465 1.33333 7.68732 1.34466C7.67843 1.39799 7.67398 1.45222 7.67398 1.50733L7.66732 3.39666C7.66732 4.12799 7.66732 4.77466 7.73732 5.29533C7.81332 5.85999 7.98732 6.42466 8.44865 6.88599C8.90865 7.34599 9.47398 7.52066 10.0387 7.59666C10.5593 7.66666 11.206 7.66666 11.9373 7.66666H14.6387C14.6673 8.02266 14.6673 8.45999 14.6673 9.04199V9.33333C14.6673 11.8473 14.6673 13.1047 13.886 13.8853C13.1046 14.666 11.848 14.6667 9.33398 14.6667Z" fill="#2D60FF"/>
<path d="M12.9007 5.078L10.2607 2.70267C9.50935 2.026 9.13402 1.68733 8.67202 1.51067L8.66602 3.33333C8.66602 4.90467 8.66602 5.69067 9.15402 6.17867C9.64202 6.66667 10.428 6.66667 11.9993 6.66667H14.386C14.1447 6.19733 13.7113 5.808 12.9007 5.078Z" fill="#2D60FF"/>
</svg>
