<svg width="24" height="24" viewBox="0 0 24 24" fill="none" xmlns="http://www.w3.org/2000/svg">
<path d="M22 21.25C22.4142 21.25 22.75 21.5858 22.75 22C22.75 22.4142 22.4142 22.75 22 22.75H2C1.58579 22.75 1.25 22.4142 1.25 22C1.25 21.5858 1.58579 21.25 2 21.25H22Z" fill="#717E8C"/>
<path d="M20.2501 6C20.2501 5.03578 20.2486 4.38815 20.1837 3.90528C20.1217 3.44431 20.0144 3.24673 19.8839 3.11621C19.7534 2.98571 19.5558 2.87845 19.0948 2.81641C18.612 2.75145 17.9643 2.75 17.0001 2.75H15.0001C14.0359 2.75 13.3882 2.75145 12.9054 2.81641C12.4443 2.87844 12.2468 2.98571 12.1163 3.11621L12.1153 3.11719C11.8914 3.34094 11.7728 3.71918 11.754 5.01074L10.254 4.98926C10.2712 3.80166 10.336 2.77297 11.0558 2.05469C11.511 1.59969 12.0777 1.41453 12.7052 1.33008C13.3113 1.24854 14.0783 1.25 15.0001 1.25H17.0001C17.9216 1.25 18.688 1.2486 19.294 1.33008C19.9219 1.41454 20.489 1.6002 20.9444 2.05567C21.3998 2.51102 21.5855 3.07743 21.67 3.70508C21.7516 4.31121 21.7501 5.07822 21.7501 6V22H20.2501V6Z" fill="#717E8C"/>
<path d="M14.25 9C14.25 8.03578 14.2486 7.38815 14.1836 6.90528C14.1216 6.44426 14.0143 6.24673 13.8838 6.11621C13.7533 5.9857 13.5557 5.87845 13.0947 5.81641C12.6119 5.75145 11.9642 5.75 11 5.75H7C6.03578 5.75 5.38814 5.75145 4.90527 5.81641C4.44426 5.87845 4.24673 5.9857 4.11621 6.11621C3.9857 6.24673 3.87845 6.44426 3.81641 6.90528C3.75145 7.38815 3.75 8.03578 3.75 9V22H2.25V9C2.25 8.07822 2.24854 7.31121 2.33008 6.70508C2.41457 6.07741 2.6003 5.51103 3.05566 5.05567C3.51103 4.6003 4.07741 4.41457 4.70508 4.33008C5.31121 4.24854 6.07822 4.25 7 4.25H11C11.9218 4.25 12.6888 4.24854 13.2949 4.33008C13.9226 4.41457 14.489 4.6003 14.9443 5.05567C15.3997 5.51103 15.5854 6.07741 15.6699 6.70508C15.7515 7.31121 15.75 8.07822 15.75 9V22H14.25V9Z" fill="#717E8C"/>
<path d="M8.25 22V19C8.25 18.5858 8.58579 18.25 9 18.25C9.41421 18.25 9.75 18.5858 9.75 19V22C9.75 22.4142 9.41421 22.75 9 22.75C8.58579 22.75 8.25 22.4142 8.25 22ZM12 13.25C12.4142 13.25 12.75 13.5858 12.75 14C12.75 14.4142 12.4142 14.75 12 14.75H6C5.58579 14.75 5.25 14.4142 5.25 14C5.25 13.5858 5.58579 13.25 6 13.25H12ZM12 10.25C12.4142 10.25 12.75 10.5858 12.75 11C12.75 11.4142 12.4142 11.75 12 11.75H6C5.58579 11.75 5.25 11.4142 5.25 11C5.25 10.5858 5.58579 10.25 6 10.25H12ZM12 7.25C12.4142 7.25 12.75 7.58579 12.75 8C12.75 8.41422 12.4142 8.75 12 8.75H6C5.58579 8.75 5.25 8.41422 5.25 8C5.25 7.58579 5.58579 7.25 6 7.25H12Z" fill="#717E8C"/>
</svg>
