<svg width="16" height="16" viewBox="0 0 16 16" fill="none" xmlns="http://www.w3.org/2000/svg">
<path fill-rule="evenodd" clip-rule="evenodd" d="M3.96598 1.16675C3.36732 1.16675 2.86732 1.16675 2.47132 1.22008C2.05265 1.27608 1.67465 1.40008 1.37132 1.70341C1.06732 2.00741 0.943318 2.38541 0.887318 2.80341C0.833984 3.20008 0.833984 3.70008 0.833984 4.29875V5.70142C0.833984 6.30008 0.833984 6.80008 0.887318 7.19608C0.943318 7.61475 1.06732 7.99275 1.37065 8.29608C1.67465 8.60008 2.05265 8.72408 2.47065 8.78008C2.86732 8.83342 3.36732 8.83342 3.96598 8.83342H4.03532C4.63398 8.83342 5.13398 8.83342 5.52998 8.78008C5.94865 8.72408 6.32665 8.60008 6.62998 8.29608C6.93398 7.99275 7.05798 7.61475 7.11398 7.19608C7.16732 6.80008 7.16732 6.30008 7.16732 5.70142V4.29875C7.16732 3.70008 7.16732 3.20008 7.11398 2.80408C7.05798 2.38541 6.93398 2.00741 6.63065 1.70408C6.32665 1.40008 5.94865 1.27608 5.53065 1.22008C5.13398 1.16675 4.63465 1.16675 4.03532 1.16675H3.96598ZM2.07798 2.41075C2.16465 2.32408 2.29665 2.25275 2.60465 2.21075C2.92598 2.16808 3.35798 2.16675 4.00065 2.16675C4.64332 2.16675 5.07532 2.16808 5.39732 2.21141C5.70465 2.25275 5.83665 2.32408 5.92332 2.41141C6.00998 2.49875 6.08132 2.62941 6.12332 2.93675C6.16598 3.25875 6.16732 3.69075 6.16732 4.33341V5.66675C6.16732 6.30941 6.16598 6.74142 6.12265 7.06342C6.08132 7.37075 6.00998 7.50275 5.92265 7.58941C5.83532 7.67608 5.70465 7.74742 5.39732 7.78941C5.07532 7.83208 4.64332 7.83342 4.00065 7.83342C3.35798 7.83342 2.92598 7.83208 2.60398 7.78941C2.29665 7.74742 2.16465 7.67608 2.07798 7.58941C1.99132 7.50275 1.91998 7.37075 1.87798 7.06275C1.83532 6.74142 1.83398 6.30941 1.83398 5.66675V4.33341C1.83398 3.69075 1.83532 3.25875 1.87865 2.93675C1.91998 2.62941 1.99132 2.49741 2.07865 2.41075M11.6327 7.16675C11.0333 7.16675 10.534 7.16675 10.138 7.22008C9.71932 7.27608 9.34132 7.40008 9.03798 7.70408C8.73398 8.00741 8.60998 8.38542 8.55398 8.80408C8.50065 9.20008 8.50065 9.70008 8.50065 10.2987V11.7014C8.50065 12.3007 8.50065 12.8001 8.55398 13.1961C8.60998 13.6147 8.73398 13.9927 9.03798 14.2961C9.34132 14.6001 9.71932 14.7241 10.138 14.7801C10.534 14.8334 11.0333 14.8334 11.6327 14.8334H11.702C12.3007 14.8334 12.8007 14.8334 13.1967 14.7801C13.6153 14.7241 13.9933 14.6001 14.2967 14.2961C14.6007 13.9927 14.7247 13.6147 14.7807 13.1961C14.834 12.8001 14.834 12.3007 14.834 11.7014V10.2987C14.834 9.70008 14.834 9.20008 14.7807 8.80408C14.7247 8.38542 14.6007 8.00741 14.2967 7.70408C13.9933 7.40008 13.6153 7.27608 13.1967 7.22008C12.8007 7.16675 12.3013 7.16675 11.702 7.16675H11.6327ZM9.74465 8.41075C9.83132 8.32408 9.96332 8.25275 10.2713 8.21075C10.5927 8.16808 11.0247 8.16675 11.6673 8.16675C12.31 8.16675 12.742 8.16808 13.064 8.21075C13.3713 8.25275 13.5033 8.32408 13.59 8.41075C13.6767 8.49742 13.748 8.62942 13.79 8.93742C13.8327 9.25875 13.834 9.69075 13.834 10.3334V11.6667C13.834 12.3094 13.8327 12.7414 13.7893 13.0634C13.748 13.3707 13.6767 13.5027 13.5893 13.5894C13.502 13.6761 13.3713 13.7474 13.064 13.7894C12.742 13.8321 12.31 13.8334 11.6673 13.8334C11.0247 13.8334 10.5927 13.8321 10.2707 13.7887C9.96332 13.7474 9.83132 13.6761 9.74465 13.5887C9.65798 13.5014 9.58665 13.3707 9.54465 13.0634C9.50198 12.7414 9.50065 12.3094 9.50065 11.6667V10.3334C9.50065 9.69075 9.50198 9.25875 9.54465 8.93675C9.58665 8.62941 9.65798 8.49742 9.74465 8.41075ZM10.984 1.16675H12.3507C12.6473 1.16675 12.8947 1.16675 13.0973 1.18008C13.3087 1.19475 13.5087 1.22675 13.702 1.30675C13.9245 1.39881 14.1267 1.5338 14.297 1.70401C14.4673 1.87422 14.6024 2.07631 14.6947 2.29875C14.7747 2.49208 14.806 2.69208 14.82 2.90341C14.834 3.10608 14.834 3.35341 14.834 3.65008V3.68341C14.834 3.98008 14.834 4.22741 14.8207 4.43008C14.8123 4.63727 14.7695 4.84163 14.694 5.03475C14.6019 5.25725 14.4669 5.45943 14.2967 5.62976C14.1265 5.80008 13.9244 5.93521 13.702 6.02742C13.5087 6.10742 13.3087 6.13875 13.0973 6.15275C12.8947 6.16675 12.6473 6.16675 12.3507 6.16675H10.984C10.6873 6.16675 10.44 6.16675 10.2373 6.15341C10.0301 6.14507 9.82577 6.10226 9.63265 6.02675C9.41015 5.93469 9.20797 5.7997 9.03764 5.62949C8.86732 5.45928 8.73219 5.25719 8.63998 5.03475C8.55998 4.84141 8.52865 4.64141 8.51465 4.43008C8.50065 4.22741 8.50065 3.98008 8.50065 3.68341V3.65008C8.50065 3.35341 8.50065 3.10608 8.51398 2.90341C8.52233 2.69622 8.56514 2.49187 8.64065 2.29875C8.73271 2.07625 8.8677 1.87406 9.03791 1.70374C9.20812 1.53342 9.41021 1.39829 9.63265 1.30608C9.82598 1.22608 10.026 1.19475 10.2373 1.18075C10.44 1.16675 10.6873 1.16675 10.984 1.16675ZM10.3053 2.17808C10.1447 2.18941 10.0667 2.20875 10.0153 2.23008C9.91412 2.27196 9.82217 2.33338 9.74473 2.41082C9.66728 2.48827 9.60587 2.58022 9.56398 2.68141C9.54265 2.73275 9.52332 2.81075 9.51198 2.97141C9.50109 3.20302 9.49732 3.43491 9.50065 3.66675C9.50065 3.98408 9.50065 4.19741 9.51198 4.36208C9.52332 4.52275 9.54265 4.60075 9.56398 4.65208C9.64865 4.85675 9.81065 5.01875 10.0153 5.10342C10.0667 5.12475 10.1447 5.14408 10.3053 5.15541C10.47 5.16675 10.6833 5.16675 11.0007 5.16675H12.334C12.6513 5.16675 12.8647 5.16675 13.0293 5.15541C13.19 5.14408 13.268 5.12475 13.3193 5.10342C13.524 5.01875 13.686 4.85675 13.7707 4.65208C13.792 4.60075 13.8113 4.52275 13.8227 4.36208C13.834 4.19741 13.834 3.98408 13.834 3.66675C13.834 3.34941 13.834 3.13608 13.8227 2.97141C13.8113 2.81075 13.792 2.73275 13.7707 2.68141C13.7288 2.58022 13.6674 2.48827 13.5899 2.41082C13.5125 2.33338 13.4205 2.27196 13.3193 2.23008C13.268 2.20875 13.19 2.18941 13.0293 2.17808C12.7977 2.16719 12.5658 2.16341 12.334 2.16675H11.0007C10.6833 2.16675 10.47 2.16675 10.3053 2.17808ZM3.31732 9.83342C3.02065 9.83342 2.77332 9.83342 2.57065 9.84675C2.36346 9.85509 2.15911 9.8979 1.96598 9.97342C1.74348 10.0655 1.5413 10.2005 1.37098 10.3707C1.20065 10.5409 1.06553 10.743 0.973318 10.9654C0.893318 11.1587 0.861984 11.3587 0.847984 11.5701C0.833984 11.7727 0.833984 12.0201 0.833984 12.3167V12.3501C0.833984 12.6467 0.833984 12.8941 0.847318 13.0967C0.861984 13.3081 0.893984 13.5081 0.973984 13.7014C1.06604 13.9239 1.20103 14.1261 1.37124 14.2964C1.54145 14.4667 1.74355 14.6019 1.96598 14.6941C2.15932 14.7741 2.35932 14.8054 2.57065 14.8194C2.77332 14.8334 3.02065 14.8334 3.31732 14.8334H4.68398C4.98065 14.8334 5.22798 14.8334 5.43065 14.8201C5.64198 14.8054 5.84198 14.7741 6.03532 14.6934C6.25782 14.6014 6.46 14.4664 6.63033 14.2962C6.80065 14.1259 6.93578 13.9239 7.02798 13.7014C7.10799 13.5081 7.13932 13.3081 7.15332 13.0967C7.16732 12.8941 7.16732 12.6467 7.16732 12.3501V12.3167C7.16732 12.0201 7.16732 11.7727 7.15398 11.5701C7.14564 11.3629 7.10283 11.1585 7.02732 10.9654C6.93526 10.7429 6.80027 10.5407 6.63006 10.3704C6.45985 10.2001 6.25776 10.065 6.03532 9.97275C5.84198 9.89275 5.64198 9.86141 5.43065 9.84741C5.22798 9.83342 4.98065 9.83342 4.68398 9.83342H3.31732ZM2.34865 10.8967C2.39998 10.8754 2.47798 10.8561 2.63865 10.8447C2.87026 10.8339 3.10215 10.8301 3.33398 10.8334H4.66732C4.98465 10.8334 5.19798 10.8334 5.36265 10.8447C5.52332 10.8561 5.60132 10.8754 5.65265 10.8967C5.85732 10.9814 6.01932 11.1434 6.10398 11.3481C6.12532 11.3994 6.14465 11.4774 6.15598 11.6381C6.16732 11.8027 6.16732 12.0161 6.16732 12.3334C6.16732 12.6507 6.16732 12.8641 6.15598 13.0287C6.14465 13.1894 6.12532 13.2674 6.10398 13.3187C6.0621 13.4199 6.00069 13.5119 5.92324 13.5893C5.8458 13.6668 5.75385 13.7282 5.65265 13.7701C5.60132 13.7914 5.52332 13.8107 5.36265 13.8221C5.13104 13.833 4.89916 13.8368 4.66732 13.8334H3.33398C3.01665 13.8334 2.80332 13.8334 2.63865 13.8221C2.47798 13.8107 2.39998 13.7914 2.34865 13.7701C2.24745 13.7282 2.1555 13.6668 2.07806 13.5893C2.00062 13.5119 1.9392 13.4199 1.89732 13.3187C1.87598 13.2674 1.85665 13.1894 1.84532 13.0287C1.83443 12.7971 1.83065 12.5653 1.83398 12.3334C1.83398 12.0161 1.83398 11.8027 1.84532 11.6381C1.85665 11.4774 1.87598 11.3994 1.89732 11.3481C1.98198 11.1434 2.14398 10.9814 2.34865 10.8967Z" fill="#717E8C"/>
</svg>
