<svg width="16" height="16" viewBox="0 0 16 16" fill="none" xmlns="http://www.w3.org/2000/svg">
<path d="M8.66732 10.2666C8.66732 8.88392 8.66732 8.19259 9.10665 7.76259C9.54599 7.33259 10.2533 7.33325 11.6673 7.33325C13.0813 7.33325 13.7887 7.33325 14.228 7.76259C14.6673 8.19325 14.6673 8.88392 14.6673 10.2666V11.7333C14.6673 13.1159 14.6673 13.8073 14.228 14.2373C13.7887 14.6673 13.0813 14.6666 11.6673 14.6666C10.2533 14.6666 9.54599 14.6666 9.10665 14.2373C8.66732 13.8066 8.66732 13.1159 8.66732 11.7333V10.2666ZM1.33398 5.73325C1.33398 7.11592 1.33398 7.80725 1.77332 8.23725C2.21265 8.66725 2.91998 8.66659 4.33398 8.66659C5.74798 8.66659 6.45532 8.66659 6.89465 8.23725C7.33398 7.80659 7.33398 7.11592 7.33398 5.73325V4.26659C7.33398 2.88392 7.33398 2.19259 6.89465 1.76259C6.45532 1.33259 5.74798 1.33325 4.33398 1.33325C2.91998 1.33325 2.21265 1.33325 1.77332 1.76259C1.33398 2.19325 1.33398 2.88392 1.33398 4.26659V5.73325ZM8.66732 3.66659C8.66732 2.94192 8.66732 2.57992 8.78132 2.29325C8.93023 1.91656 9.22215 1.6141 9.59332 1.45192C9.86865 1.33325 10.2187 1.33325 10.9173 1.33325H12.4173C13.116 1.33325 13.466 1.33325 13.7413 1.45192C14.1087 1.60925 14.4013 1.91192 14.5533 2.29325C14.6673 2.57992 14.6673 2.94192 14.6673 3.66659C14.6673 4.39125 14.6673 4.75325 14.5533 5.03992C14.4044 5.41661 14.1125 5.71907 13.7413 5.88125C13.466 5.99992 13.116 5.99992 12.4173 5.99992H10.9173C10.2187 5.99992 9.86865 5.99992 9.59332 5.88125C9.22215 5.71907 8.93023 5.41661 8.78132 5.03992C8.66732 4.75325 8.66732 4.39125 8.66732 3.66659ZM1.33398 12.3333C1.33398 13.0579 1.33398 13.4199 1.44798 13.7066C1.5969 14.0833 1.88882 14.3857 2.25998 14.5479C2.53532 14.6666 2.88532 14.6666 3.58398 14.6666H5.08398C5.78265 14.6666 6.13265 14.6666 6.40798 14.5479C6.77532 14.3906 7.06799 14.0879 7.21999 13.7066C7.33398 13.4199 7.33398 13.0579 7.33398 12.3333C7.33398 11.6086 7.33398 11.2466 7.21999 10.9599C7.07107 10.5832 6.77915 10.2808 6.40798 10.1186C6.13265 9.99992 5.78265 9.99992 5.08398 9.99992H3.58398C2.88532 9.99992 2.53532 9.99992 2.25998 10.1186C1.89265 10.2759 1.59998 10.5786 1.44798 10.9599C1.33398 11.2466 1.33398 11.6086 1.33398 12.3333Z" fill="#2D60FF"/>
</svg>
