<svg width="16" height="16" viewBox="0 0 16 16" fill="none" xmlns="http://www.w3.org/2000/svg">
<path fill-rule="evenodd" clip-rule="evenodd" d="M8.00065 0.833252C8.13326 0.833252 8.26044 0.88593 8.3542 0.979699C8.44797 1.07347 8.50065 1.20064 8.50065 1.33325V2.18792C9.86997 2.30569 11.1537 2.90317 12.1256 3.87501C13.0974 4.84684 13.6949 6.1306 13.8127 7.49992H14.6673C14.7999 7.49992 14.9271 7.5526 15.0209 7.64637C15.1146 7.74013 15.1673 7.86731 15.1673 7.99992C15.1673 8.13253 15.1146 8.2597 15.0209 8.35347C14.9271 8.44724 14.7999 8.49992 14.6673 8.49992H13.8127C13.6949 9.86924 13.0974 11.153 12.1256 12.1248C11.1537 13.0967 9.86997 13.6941 8.50065 13.8119V14.6666C8.50065 14.7992 8.44797 14.9264 8.3542 15.0201C8.26044 15.1139 8.13326 15.1666 8.00065 15.1666C7.86804 15.1666 7.74087 15.1139 7.6471 15.0201C7.55333 14.9264 7.50065 14.7992 7.50065 14.6666V13.8119C6.13133 13.6941 4.84757 13.0967 3.87574 12.1248C2.90391 11.153 2.30643 9.86924 2.18865 8.49992H1.33398C1.20138 8.49992 1.0742 8.44724 0.980431 8.35347C0.886663 8.2597 0.833984 8.13253 0.833984 7.99992C0.833984 7.86731 0.886663 7.74013 0.980431 7.64637C1.0742 7.5526 1.20138 7.49992 1.33398 7.49992H2.18865C2.30643 6.1306 2.90391 4.84684 3.87574 3.87501C4.84757 2.90317 6.13133 2.30569 7.50065 2.18792V1.33325C7.50065 1.20064 7.55333 1.07347 7.6471 0.979699C7.74087 0.88593 7.86804 0.833252 8.00065 0.833252ZM8.00065 3.16659C7.36593 3.16659 6.73742 3.2916 6.15101 3.5345C5.56461 3.7774 5.03178 4.13342 4.58297 4.58224C4.13415 5.03105 3.77813 5.56387 3.53523 6.15028C3.29234 6.73669 3.16732 7.3652 3.16732 7.99992C3.16732 8.63464 3.29234 9.26315 3.53523 9.84956C3.77813 10.436 4.13415 10.9688 4.58297 11.4176C5.03178 11.8664 5.56461 12.2224 6.15101 12.4653C6.73742 12.7082 7.36593 12.8333 8.00065 12.8333C9.28253 12.8333 10.5119 12.324 11.4183 11.4176C12.3248 10.5112 12.834 9.2818 12.834 7.99992C12.834 6.71804 12.3248 5.48866 11.4183 4.58224C10.5119 3.67581 9.28253 3.16659 8.00065 3.16659ZM8.00065 6.49992C7.60283 6.49992 7.2213 6.65795 6.93999 6.93926C6.65869 7.22056 6.50065 7.60209 6.50065 7.99992C6.50065 8.39774 6.65869 8.77927 6.93999 9.06058C7.2213 9.34188 7.60283 9.49992 8.00065 9.49992C8.39848 9.49992 8.78001 9.34188 9.06131 9.06058C9.34262 8.77927 9.50065 8.39774 9.50065 7.99992C9.50065 7.60209 9.34262 7.22056 9.06131 6.93926C8.78001 6.65795 8.39848 6.49992 8.00065 6.49992ZM5.50065 7.99992C5.50065 7.33688 5.76404 6.70099 6.23288 6.23215C6.70172 5.76331 7.33761 5.49992 8.00065 5.49992C8.66369 5.49992 9.29958 5.76331 9.76842 6.23215C10.2373 6.70099 10.5007 7.33688 10.5007 7.99992C10.5007 8.66296 10.2373 9.29884 9.76842 9.76768C9.29958 10.2365 8.66369 10.4999 8.00065 10.4999C7.33761 10.4999 6.70172 10.2365 6.23288 9.76768C5.76404 9.29884 5.50065 8.66296 5.50065 7.99992Z" fill="#717E8C"/>
</svg>
