<svg width="16" height="16" viewBox="0 0 16 16" fill="none" xmlns="http://www.w3.org/2000/svg">
<path fill-rule="evenodd" clip-rule="evenodd" d="M1.33203 8C1.33203 8.25667 1.54003 8.46534 1.79736 8.46534H3.0587C3.16718 9.61539 3.67347 10.6916 4.4903 11.5084C5.30712 12.3252 6.38331 12.8315 7.53336 12.94V14.2013C7.53336 14.3247 7.58239 14.4431 7.66966 14.5304C7.75692 14.6176 7.87528 14.6667 7.9987 14.6667C8.12211 14.6667 8.24047 14.6176 8.32774 14.5304C8.415 14.4431 8.46403 14.3247 8.46403 14.2013V12.94C9.61409 12.8315 10.6903 12.3252 11.5071 11.5084C12.3239 10.6916 12.8302 9.61539 12.9387 8.46534H14.2C14.3234 8.46534 14.4418 8.41631 14.5291 8.32904C14.6163 8.24178 14.6654 8.12342 14.6654 8C14.6654 7.87659 14.6163 7.75823 14.5291 7.67096C14.4418 7.58369 14.3234 7.53467 14.2 7.53467H12.9387C12.8302 6.38461 12.3239 5.30842 11.5071 4.4916C10.6903 3.67478 9.61409 3.16849 8.46403 3.06V1.79867C8.46403 1.67526 8.415 1.5569 8.32774 1.46963C8.24047 1.38236 8.12211 1.33334 7.9987 1.33334C7.87528 1.33334 7.75692 1.38236 7.66966 1.46963C7.58239 1.5569 7.53336 1.67526 7.53336 1.79867V3.06C6.38331 3.16849 5.30712 3.67478 4.4903 4.4916C3.67347 5.30842 3.16718 6.38461 3.0587 7.53467H1.79736C1.67406 7.53502 1.5559 7.58416 1.46871 7.67135C1.38152 7.75854 1.33238 7.8767 1.33203 8ZM5.67336 8C5.67336 7.38329 5.91835 6.79183 6.35444 6.35574C6.79052 5.91966 7.38198 5.67467 7.9987 5.67467C8.61541 5.67467 9.20687 5.91966 9.64296 6.35574C10.079 6.79183 10.324 7.38329 10.324 8C10.324 8.61672 10.079 9.20818 9.64296 9.64426C9.20687 10.0803 8.61541 10.3253 7.9987 10.3253C7.38198 10.3253 6.79052 10.0803 6.35444 9.64426C5.91835 9.20818 5.67336 8.61672 5.67336 8Z" fill="#2D60FF"/>
<path d="M6.60547 8C6.60547 7.62994 6.75248 7.27503 7.01415 7.01335C7.27583 6.75168 7.63074 6.60467 8.0008 6.60467C8.37087 6.60467 8.72578 6.75168 8.98745 7.01335C9.24913 7.27503 9.39614 7.62994 9.39614 8C9.39614 8.37007 9.24913 8.72498 8.98745 8.98665C8.72578 9.24833 8.37087 9.39533 8.0008 9.39533C7.63074 9.39533 7.27583 9.24833 7.01415 8.98665C6.75248 8.72498 6.60547 8.37007 6.60547 8Z" fill="#2D60FF"/>
</svg>
