<svg width="16" height="16" viewBox="0 0 16 16" fill="none" xmlns="http://www.w3.org/2000/svg">
<path fill-rule="evenodd" clip-rule="evenodd" d="M8.00065 0.833252C7.1608 0.833252 6.35534 1.16688 5.76148 1.76075C5.16761 2.35461 4.83398 3.16007 4.83398 3.99992C4.83398 4.83977 5.16761 5.64523 5.76148 6.23909C6.35534 6.83296 7.1608 7.16659 8.00065 7.16659C8.8405 7.16659 9.64596 6.83296 10.2398 6.23909C10.8337 5.64523 11.1673 4.83977 11.1673 3.99992C11.1673 3.16007 10.8337 2.35461 10.2398 1.76075C9.64596 1.16688 8.8405 0.833252 8.00065 0.833252ZM5.83398 3.99992C5.83398 3.42528 6.06226 2.87418 6.46859 2.46785C6.87492 2.06153 7.42602 1.83325 8.00065 1.83325C8.57529 1.83325 9.12639 2.06153 9.53272 2.46785C9.93904 2.87418 10.1673 3.42528 10.1673 3.99992C10.1673 4.57455 9.93904 5.12565 9.53272 5.53198C9.12639 5.93831 8.57529 6.16659 8.00065 6.16659C7.42602 6.16659 6.87492 5.93831 6.46859 5.53198C6.06226 5.12565 5.83398 4.57455 5.83398 3.99992Z" fill="#717E8C"/>
<path d="M12 2.16675C11.8674 2.16675 11.7402 2.21943 11.6464 2.31319C11.5527 2.40696 11.5 2.53414 11.5 2.66675C11.5 2.79936 11.5527 2.92653 11.6464 3.0203C11.7402 3.11407 11.8674 3.16675 12 3.16675C12.918 3.16675 13.5 3.77075 13.5 4.33341C13.5 4.89608 12.918 5.50008 12 5.50008C11.8674 5.50008 11.7402 5.55276 11.6464 5.64653C11.5527 5.7403 11.5 5.86747 11.5 6.00008C11.5 6.13269 11.5527 6.25987 11.6464 6.35363C11.7402 6.4474 11.8674 6.50008 12 6.50008C13.2913 6.50008 14.5 5.61141 14.5 4.33341C14.5 3.05541 13.2913 2.16675 12 2.16675ZM4.5 2.66675C4.5 2.53414 4.44732 2.40696 4.35355 2.31319C4.25979 2.21943 4.13261 2.16675 4 2.16675C2.70867 2.16675 1.5 3.05541 1.5 4.33341C1.5 5.61141 2.70867 6.50008 4 6.50008C4.13261 6.50008 4.25979 6.4474 4.35355 6.35363C4.44732 6.25987 4.5 6.13269 4.5 6.00008C4.5 5.86747 4.44732 5.7403 4.35355 5.64653C4.25979 5.55276 4.13261 5.50008 4 5.50008C3.08267 5.50008 2.5 4.89608 2.5 4.33341C2.5 3.77075 3.08267 3.16675 4 3.16675C4.13261 3.16675 4.25979 3.11407 4.35355 3.0203C4.44732 2.92653 4.5 2.79936 4.5 2.66675Z" fill="#717E8C"/>
<path fill-rule="evenodd" clip-rule="evenodd" d="M8 8.16675C6.81067 8.16675 5.71067 8.48675 4.894 9.03141C4.08067 9.57408 3.5 10.3781 3.5 11.3334C3.5 12.2887 4.08067 13.0934 4.894 13.6354C5.71067 14.1794 6.81067 14.5001 8 14.5001C9.18933 14.5001 10.2893 14.1801 11.106 13.6354C11.9193 13.0927 12.5 12.2887 12.5 11.3334C12.5 10.3781 11.9187 9.57341 11.106 9.03141C10.2893 8.48741 9.18933 8.16675 8 8.16675ZM4.5 11.3334C4.5 10.8161 4.81467 10.2867 5.44867 9.86408C6.08 9.44341 6.98067 9.16675 8 9.16675C9.02 9.16675 9.92 9.44341 10.5513 9.86408C11.1853 10.2867 11.5 10.8161 11.5 11.3334C11.5 11.8507 11.1853 12.3801 10.5513 12.8027C9.92 13.2234 9.01933 13.5001 8 13.5001C6.98 13.5001 6.08 13.2234 5.44867 12.8027C4.81467 12.3801 4.5 11.8507 4.5 11.3334Z" fill="#717E8C"/>
<path d="M12.844 9.22669C12.858 9.16243 12.8845 9.10157 12.9221 9.04758C12.9596 8.99359 13.0074 8.94753 13.0628 8.91205C13.1181 8.87657 13.18 8.85235 13.2447 8.84079C13.3094 8.82923 13.3758 8.83056 13.44 8.84469C14.0807 8.98535 14.6587 9.23935 15.088 9.59069C15.5167 9.94135 15.8327 10.424 15.8327 11C15.8327 11.5767 15.5167 12.0587 15.088 12.4094C14.6587 12.7607 14.0813 13.0147 13.44 13.1554C13.3758 13.1694 13.3095 13.1708 13.2448 13.1592C13.1802 13.1477 13.1184 13.1235 13.063 13.0881C13.0077 13.0527 12.9599 13.0067 12.9223 12.9529C12.8847 12.899 12.8581 12.8382 12.844 12.774C12.8299 12.7098 12.8286 12.6435 12.8401 12.5788C12.8517 12.5142 12.8758 12.4524 12.9112 12.397C12.9467 12.3417 12.9926 12.2939 13.0465 12.2563C13.1004 12.2187 13.1612 12.1921 13.2253 12.178C13.754 12.0627 14.176 11.8634 14.4547 11.6354C14.7333 11.4074 14.8327 11.184 14.8327 11C14.8327 10.816 14.7333 10.5934 14.4547 10.3647C14.176 10.136 13.754 9.93802 13.2253 9.82202C13.1612 9.80796 13.1004 9.78139 13.0464 9.74382C12.9925 9.70625 12.9466 9.65842 12.9111 9.60307C12.8757 9.54771 12.8516 9.48592 12.84 9.42122C12.8285 9.35653 12.8299 9.29019 12.844 9.22602M2.55935 8.84469C2.68895 8.8164 2.82448 8.84075 2.93613 8.91239C3.04778 8.98403 3.12639 9.09708 3.15468 9.22669C3.18297 9.35629 3.15862 9.49182 3.08698 9.60347C3.01534 9.71511 2.90228 9.79373 2.77268 9.82202C2.24468 9.93735 1.82268 10.1367 1.54402 10.3647C1.26535 10.5927 1.16602 10.816 1.16602 11C1.16602 11.184 1.26535 11.4067 1.54402 11.6354C1.82268 11.864 2.24468 12.062 2.77335 12.178C2.90295 12.2065 3.01594 12.2853 3.08745 12.397C3.15897 12.5088 3.18315 12.6444 3.15468 12.774C3.12622 12.9036 3.04743 13.0166 2.93566 13.0881C2.82389 13.1596 2.68828 13.1838 2.55868 13.1554C1.91735 13.0147 1.34002 12.7607 0.910682 12.4094C0.482016 12.0587 0.166016 11.576 0.166016 11C0.166016 10.4234 0.482016 9.94135 0.910682 9.59069C1.34002 9.23935 1.91802 8.98535 2.55935 8.84469Z" fill="#717E8C"/>
</svg>
