<svg width="16" height="16" viewBox="0 0 16 16" fill="none" xmlns="http://www.w3.org/2000/svg">
<path d="M10.334 5C10.334 5.30642 10.2736 5.60984 10.1564 5.89293C10.0391 6.17602 9.86724 6.43325 9.65057 6.64992C9.4339 6.86659 9.17667 7.03846 8.89358 7.15572C8.61049 7.27298 8.30707 7.33333 8.00065 7.33333C7.69423 7.33333 7.39082 7.27298 7.10772 7.15572C6.82463 7.03846 6.56741 6.86659 6.35074 6.64992C6.13407 6.43325 5.96219 6.17602 5.84493 5.89293C5.72767 5.60984 5.66732 5.30642 5.66732 5C5.66732 4.38116 5.91315 3.78767 6.35074 3.35008C6.78832 2.9125 7.38181 2.66667 8.00065 2.66667C8.61949 2.66667 9.21298 2.9125 9.65057 3.35008C10.0882 3.78767 10.334 4.38116 10.334 5ZM12.0007 11C12.0007 12.2887 10.21 13.3333 8.00065 13.3333C5.79132 13.3333 4.00065 12.2887 4.00065 11C4.00065 9.71133 5.79132 8.66667 8.00065 8.66667C10.21 8.66667 12.0007 9.71133 12.0007 11ZM4.74865 3.33333C4.86732 3.33333 4.98243 3.34444 5.09398 3.36667C4.81397 3.86548 4.66703 4.42796 4.66732 5C4.66732 5.57867 4.81465 6.12333 5.07398 6.59733C4.96865 6.61733 4.86021 6.62733 4.74865 6.62733C3.80598 6.62733 3.04132 5.89 3.04132 4.98067C3.04132 4.07133 3.80598 3.33333 4.74865 3.33333ZM3.63198 12.6573C3.25398 12.2047 3.00065 11.6493 3.00065 11C3.00065 10.3707 3.23865 9.82933 3.59798 9.38467C2.32732 9.48333 1.33398 10.178 1.33398 11.0193C1.33398 11.8693 2.34532 12.5693 3.63198 12.6573ZM11.334 5C11.334 5.57867 11.1867 6.12333 10.9273 6.59733C11.0322 6.61733 11.1407 6.62733 11.2527 6.62733C12.1953 6.62733 12.9593 5.89 12.9593 4.98067C12.9593 4.07133 12.196 3.33333 11.2533 3.33333C11.1347 3.33333 11.0195 3.34444 10.908 3.36667C11.1793 3.84933 11.334 4.40667 11.334 5ZM12.3693 12.6573C13.656 12.5693 14.6673 11.8693 14.6673 11.0193C14.6673 10.1773 13.6733 9.48333 12.4033 9.38467C12.7633 9.82933 13.0007 10.3707 13.0007 11C13.0007 11.6493 12.7473 12.2047 12.3693 12.6573Z" fill="#2D60FF"/>
</svg>
