<svg width="33" height="33" viewBox="0 0 33 33" fill="none" xmlns="http://www.w3.org/2000/svg">
<path d="M3.14658 14.5015C2.20645 15.4178 1.78025 16.9435 1.68467 17.5918C-0.0084585 14.9469 1.84471 12.9619 2.98293 12.2999C0.454097 11.6305 1.1235 8.40256 1.65901 9.07201C2.19452 9.74145 3.80108 10.381 4.50023 10.381C5.19938 10.381 6.43404 10.1727 6.43404 9.07201C6.43404 6.85561 1.1235 7.59897 1.1235 4.23742C1.1235 2.28574 2.92749 1.17463 4.23205 1.03673V0.621844C4.23205 0.278409 4.51046 0 4.8539 0C5.19733 0 5.47574 0.278409 5.47574 0.621844V1.03673C8.05813 1.69125 8.38283 3.20079 8.38283 4.23742C8.38283 5.27404 6.80063 2.61131 4.89684 2.61131C4.02212 2.61131 3.27604 2.9533 3.27604 4.10347C3.27604 5.66749 8.54637 5.76153 8.54637 9.07201C8.54637 11.6008 4.32173 13.3561 3.14658 14.5015Z" fill="#0B33B1"/>
<path fill-rule="evenodd" clip-rule="evenodd" d="M28.5149 16.0365C30.4369 16.0367 32.7238 17.4784 32.7239 20.0716C32.7236 22.6646 30.5269 23.9715 29.2456 24.4833C27.9656 24.9946 25.4313 25.5305 25.4257 25.7308C25.4257 25.9303 26.448 26.0807 26.4504 26.2801C26.4504 26.4798 26.1358 27.5813 24.959 27.5813C24.0177 27.5811 23.5741 26.2708 23.47 25.6157C21.5248 28.0724 18.9308 27.4346 18.9307 29.2279C18.931 30.6626 21.5093 32.1344 22.7982 32.6912H9.82944C11.0306 32.6906 13.8867 30.8982 13.8871 29.2279C13.8869 27.5575 11.3419 27.4588 9.13252 26.3289C6.92303 25.1987 4.78478 22.2505 3.65601 20.9975C2.75292 19.9952 0.842502 18.8665 0 18.4275C0.846944 18.3341 2.92435 18.2839 4.45803 18.8317C6.37518 19.5165 7.63837 20.2017 8.88604 20.2017C9.86012 20.2017 11.2414 19.5365 12.0904 18.8379H20.8275C22.5663 20.4139 23.3598 19.362 24.4547 18.2561C25.6643 17.0344 26.5928 16.0365 28.5149 16.0365ZM29.5809 18.3449C27.0637 16.5168 24.8597 21.2645 24.4648 23.9704C25.9727 23.4298 33.3818 21.1064 29.5809 18.3449Z" fill="#0B33B1"/>
<path d="M16.4395 12.7521C17.4122 12.7522 17.7808 13.7753 17.7808 14.4387C17.7807 15.0469 17.4827 15.5669 17.3079 15.8726L17.3066 15.8751C18.0173 15.8751 18.0856 15.8755 19.9554 17.9371H12.8961C13.5577 17.0692 14.6514 15.8754 15.58 15.8751C15.4253 15.7065 15.1859 15.2093 15.1858 14.5013C15.1859 13.7929 15.4667 12.7521 16.4395 12.7521Z" fill="#0B33B1"/>
</svg>
