<svg width="16" height="16" viewBox="0 0 16 16" fill="none" xmlns="http://www.w3.org/2000/svg">
<path fill-rule="evenodd" clip-rule="evenodd" d="M13.6057 6.57343C13.5669 6.57163 13.528 6.57097 13.4891 6.57143H11.8657C10.5377 6.57143 9.40039 7.62543 9.40039 9.0001C9.40039 10.3748 10.5377 11.4288 11.8664 11.4288H13.4884C13.5293 11.4292 13.5682 11.4283 13.6051 11.4261C13.8791 11.4083 14.1373 11.2917 14.3318 11.0978C14.5263 10.9039 14.6437 10.6461 14.6624 10.3721C14.6651 10.3328 14.6651 10.2908 14.6651 10.2521V7.7481C14.6651 7.70943 14.6651 7.66743 14.6624 7.6281C14.6438 7.35425 14.5264 7.09646 14.332 6.90261C14.1377 6.70877 13.8796 6.59204 13.6057 6.5741M11.7237 9.6481C12.0657 9.6481 12.3437 9.35877 12.3437 9.00077C12.3437 8.64277 12.0657 8.35343 11.7237 8.35343C11.3817 8.35343 11.1044 8.64277 11.1044 9.00077C11.1044 9.35877 11.3811 9.6481 11.7237 9.6481Z" fill="#2D60FF"/>
<path fill-rule="evenodd" clip-rule="evenodd" d="M13.49 12.3999C13.5123 12.3991 13.5345 12.4036 13.5548 12.413C13.5751 12.4224 13.5929 12.4364 13.6068 12.4539C13.6207 12.4714 13.6302 12.4919 13.6347 12.5138C13.6392 12.5357 13.6385 12.5584 13.6327 12.5799C13.5033 13.0413 13.2987 13.4346 12.97 13.7653C12.4893 14.2499 11.8793 14.4653 11.126 14.5673C10.394 14.6666 9.45932 14.6666 8.27798 14.6666H6.91998C5.73932 14.6666 4.80398 14.6666 4.07198 14.5673C3.31865 14.4653 2.70865 14.2499 2.22798 13.7653C1.74732 13.2819 1.53398 12.6666 1.43265 11.9079C1.33398 11.1693 1.33398 10.2266 1.33398 9.03659V8.96325C1.33398 7.77325 1.33398 6.82992 1.43265 6.09259C1.53398 5.33325 1.74732 4.71992 2.22732 4.23392C2.70798 3.74992 3.31798 3.53392 4.07132 3.43259C4.80398 3.33325 5.73932 3.33325 6.91998 3.33325H8.27798C9.45865 3.33325 10.394 3.33325 11.126 3.43259C11.8793 3.53459 12.4893 3.74992 12.97 4.23392C13.2987 4.56525 13.5033 4.95858 13.6327 5.42058C13.6384 5.44211 13.639 5.46468 13.6345 5.48648C13.6299 5.50828 13.6203 5.52872 13.6064 5.54615C13.5926 5.56358 13.5748 5.57753 13.5546 5.58686C13.5344 5.5962 13.5122 5.60067 13.49 5.59992H11.868C10.0453 5.59992 8.43932 7.05125 8.43932 8.99992C8.43932 10.9486 10.046 12.3999 11.8687 12.3999H13.49ZM3.74332 5.92392C3.67985 5.92418 3.61705 5.93694 3.55851 5.96147C3.49997 5.98601 3.44683 6.02183 3.40213 6.0669C3.35744 6.11196 3.32206 6.16539 3.29801 6.22414C3.27396 6.28288 3.26172 6.34578 3.26198 6.40925C3.26198 6.67792 3.47732 6.89525 3.74332 6.89525H6.31398C6.58065 6.89525 6.79598 6.67792 6.79598 6.40925C6.79634 6.281 6.74578 6.15785 6.6554 6.06686C6.56503 5.97586 6.44223 5.92445 6.31398 5.92392H3.74332Z" fill="#2D60FF"/>
<path d="M5.18555 2.68257L6.49088 1.72057C6.83155 1.46885 7.24397 1.33301 7.66755 1.33301C8.09113 1.33301 8.50354 1.46885 8.84421 1.72057L10.1569 2.6879C9.60755 2.66657 8.99421 2.66657 8.32288 2.66657H6.87621C6.26155 2.66657 5.69688 2.66657 5.18555 2.68257Z" fill="#2D60FF"/>
</svg>
