<svg width="16" height="16" viewBox="0 0 16 16" fill="none" xmlns="http://www.w3.org/2000/svg">
<path fill-rule="evenodd" clip-rule="evenodd" d="M13.9493 7.83336H12.1533C11.204 7.83336 10.4993 8.53936 10.4993 9.33336C10.4993 10.1274 11.204 10.8334 12.1527 10.8334H13.9647C14.102 10.8247 14.1613 10.732 14.166 10.676V7.9907C14.1613 7.9347 14.102 7.84203 13.9647 7.83403L13.9493 7.83336ZM13.9 6.83336C13.9444 6.83292 13.9867 6.83381 14.0267 6.83603C14.6067 6.87136 15.1207 7.30936 15.164 7.92136C15.1667 7.96136 15.1667 8.0047 15.1667 8.0447V10.622C15.1667 10.662 15.1667 10.7054 15.164 10.7454C15.1207 11.3574 14.6067 11.7954 14.026 11.8314C13.9864 11.8331 13.9442 11.8338 13.8993 11.8334H12.154C10.724 11.8334 9.5 10.748 9.5 9.33336C9.5 7.9187 10.724 6.83336 12.1533 6.83336H13.9Z" fill="#717E8C"/>
<path d="M12.6673 9.33341C12.6673 9.51023 12.5971 9.67979 12.4721 9.80482C12.347 9.92984 12.1775 10.0001 12.0007 10.0001C11.8238 10.0001 11.6543 9.92984 11.5292 9.80482C11.4042 9.67979 11.334 9.51023 11.334 9.33341C11.334 9.1566 11.4042 8.98703 11.5292 8.86201C11.6543 8.73699 11.8238 8.66675 12.0007 8.66675C12.1775 8.66675 12.347 8.73699 12.4721 8.86201C12.5971 8.98703 12.6673 9.1566 12.6673 9.33341Z" fill="#717E8C"/>
<path fill-rule="evenodd" clip-rule="evenodd" d="M13.9007 6.83327C13.9451 6.83282 13.9873 6.83371 14.0273 6.83594C14.1773 6.8446 14.3227 6.8806 14.4573 6.93994C14.386 5.86927 14.1893 5.04394 13.5733 4.42727C13.074 3.9286 12.4413 3.70727 11.66 3.60194L11.632 3.5986L11.6107 3.58327L9.11998 1.93194C8.68786 1.65023 8.18315 1.50024 7.66732 1.50024C7.15148 1.50024 6.64677 1.65023 6.21465 1.93194L3.72465 3.58327L3.70265 3.5986L3.67465 3.60194C2.89332 3.70727 2.26065 3.9286 1.76132 4.42727C1.26265 4.9266 1.04132 5.55927 0.935984 6.3406C0.833984 7.1006 0.833984 8.0706 0.833984 9.29594V9.3706C0.833984 10.5959 0.833984 11.5666 0.935984 12.3259C1.04132 13.1073 1.26265 13.7399 1.76132 14.2393C2.26065 14.7379 2.89332 14.9593 3.67465 15.0646C4.43465 15.1666 5.40465 15.1666 6.62998 15.1666H8.70465C9.92998 15.1666 10.9007 15.1666 11.66 15.0646C12.4413 14.9593 13.074 14.7379 13.5733 14.2393C14.1893 13.6226 14.386 12.7973 14.4573 11.7259C14.3218 11.7864 14.1782 11.8215 14.0267 11.8313C13.9871 11.833 13.9449 11.8337 13.9 11.8333H13.446C13.37 12.7279 13.1987 13.1999 12.866 13.5319C12.584 13.8139 12.1973 13.9833 11.5267 14.0733C10.842 14.1653 9.93865 14.1666 8.66732 14.1666H6.66732C5.39598 14.1666 4.49332 14.1653 3.80732 14.0733C3.13732 13.9833 2.75065 13.8139 2.46865 13.5319C2.18665 13.2499 2.01732 12.8633 1.92732 12.1926C1.83532 11.5079 1.83398 10.6046 1.83398 9.33327C1.83398 8.06194 1.83532 7.15927 1.92732 6.47327C2.01732 5.80327 2.18665 5.4166 2.46865 5.1346C2.75065 4.8526 3.13732 4.68327 3.80798 4.59327C4.49332 4.50127 5.39598 4.49994 6.66732 4.49994H8.66732C9.93865 4.49994 10.842 4.50127 11.5273 4.59327C12.1973 4.68327 12.584 4.8526 12.866 5.1346C13.1987 5.4666 13.37 5.93927 13.446 6.83327H13.9007ZM6.62998 3.49994H8.70465C9.0491 3.49994 9.37354 3.5006 9.67798 3.50194L8.56732 2.76527C8.03398 2.41194 7.30065 2.41194 6.76732 2.76527L5.65598 3.50194C5.96087 3.50016 6.28532 3.49949 6.62932 3.49994" fill="#717E8C"/>
<path d="M4 6.16675C3.86739 6.16675 3.74021 6.21943 3.64645 6.31319C3.55268 6.40696 3.5 6.53414 3.5 6.66675C3.5 6.79936 3.55268 6.92653 3.64645 7.0203C3.74021 7.11407 3.86739 7.16675 4 7.16675H6.66667C6.79927 7.16675 6.92645 7.11407 7.02022 7.0203C7.11399 6.92653 7.16667 6.79936 7.16667 6.66675C7.16667 6.53414 7.11399 6.40696 7.02022 6.31319C6.92645 6.21943 6.79927 6.16675 6.66667 6.16675H4Z" fill="#717E8C"/>
<path d="M12.6673 9.33341C12.6673 9.51023 12.5971 9.67979 12.4721 9.80482C12.347 9.92984 12.1775 10.0001 12.0007 10.0001C11.8238 10.0001 11.6543 9.92984 11.5292 9.80482C11.4042 9.67979 11.334 9.51023 11.334 9.33341C11.334 9.1566 11.4042 8.98703 11.5292 8.86201C11.6543 8.73699 11.8238 8.66675 12.0007 8.66675C12.1775 8.66675 12.347 8.73699 12.4721 8.86201C12.5971 8.98703 12.6673 9.1566 12.6673 9.33341Z" fill="#717E8C"/>
</svg>
