<svg width="16" height="16" viewBox="0 0 16 16" fill="none" xmlns="http://www.w3.org/2000/svg">
<path fill-rule="evenodd" clip-rule="evenodd" d="M7.99939 0.833252C7.15953 0.833252 6.35408 1.16688 5.76021 1.76075C5.16635 2.35461 4.83272 3.16007 4.83272 3.99992C4.83272 4.83977 5.16635 5.64522 5.76021 6.23909C6.35408 6.83295 7.15953 7.16658 7.99939 7.16658C8.83924 7.16658 9.64469 6.83295 10.2386 6.23909C10.8324 5.64522 11.1661 4.83977 11.1661 3.99992C11.1661 3.16007 10.8324 2.35461 10.2386 1.76075C9.64469 1.16688 8.83924 0.833252 7.99939 0.833252ZM5.83272 3.99992C5.83272 3.42528 6.06099 2.87418 6.46732 2.46785C6.87365 2.06152 7.42475 1.83325 7.99939 1.83325C8.57402 1.83325 9.12512 2.06152 9.53145 2.46785C9.93778 2.87418 10.1661 3.42528 10.1661 3.99992C10.1661 4.57455 9.93778 5.12565 9.53145 5.53198C9.12512 5.93831 8.57402 6.16658 7.99939 6.16658C7.42475 6.16658 6.87365 5.93831 6.46732 5.53198C6.06099 5.12565 5.83272 4.57455 5.83272 3.99992ZM7.99939 8.16658C6.45739 8.16658 5.03605 8.51725 3.98339 9.10925C2.94605 9.69325 2.16605 10.5773 2.16605 11.6666V11.7346C2.16539 12.5093 2.16472 13.4813 3.01739 14.1759C3.43672 14.5173 4.02405 14.7606 4.81739 14.9206C5.61205 15.0819 6.64872 15.1666 7.99939 15.1666C9.35005 15.1666 10.3861 15.0819 11.1821 14.9206C11.9754 14.7606 12.5621 14.5173 12.9821 14.1759C13.8347 13.4813 13.8334 12.5093 13.8327 11.7346V11.6666C13.8327 10.5773 13.0527 9.69325 12.0161 9.10925C10.9627 8.51725 9.54205 8.16658 7.99939 8.16658ZM3.16605 11.6666C3.16605 11.0993 3.58072 10.4833 4.47339 9.98125C5.35072 9.48792 6.59605 9.16658 8.00005 9.16658C9.40272 9.16658 10.6481 9.48792 11.5254 9.98125C12.4187 10.4833 12.8327 11.0993 12.8327 11.6666C12.8327 12.5386 12.8061 13.0293 12.3501 13.3999C12.1034 13.6013 11.6901 13.7979 10.9834 13.9406C10.2787 14.0833 9.31539 14.1666 7.99939 14.1666C6.68339 14.1666 5.71939 14.0833 5.01539 13.9406C4.30872 13.7979 3.89539 13.6013 3.64872 13.4006C3.19272 13.0293 3.16605 12.5386 3.16605 11.6666Z" fill="#717E8C"/>
</svg>
