<svg width="16" height="16" viewBox="0 0 16 16" fill="none" xmlns="http://www.w3.org/2000/svg">
<path d="M8.00006 0.833253C8.30379 0.833253 8.55692 0.832846 8.76374 0.846925C8.97503 0.861321 9.17508 0.892444 9.36855 0.972576C9.59104 1.06471 9.79332 1.20008 9.96361 1.37036C10.1335 1.54031 10.268 1.74215 10.3601 1.96411C10.4334 2.13978 10.4664 2.3228 10.4825 2.5162L10.4942 2.71346V2.71997C10.4965 2.81798 10.5236 2.91394 10.573 2.99862C10.6208 3.08054 10.6884 3.14926 10.7689 3.19914C10.8536 3.24561 10.9484 3.27091 11.045 3.2714C11.143 3.27189 11.2396 3.24735 11.3256 3.20044L11.3314 3.19719C11.5699 3.07125 11.7956 2.97141 12.0456 2.93807H12.0463C12.285 2.90657 12.5279 2.92266 12.7605 2.98495C12.9349 3.03166 13.1012 3.10354 13.254 3.19849L13.4018 3.30135L13.4031 3.302C13.5684 3.42958 13.6951 3.58664 13.8132 3.76229C13.9288 3.93416 14.0549 4.153 14.2071 4.41594L14.2077 4.41724C14.3592 4.68017 14.4858 4.89908 14.5769 5.08521C14.6699 5.27531 14.7429 5.46369 14.7702 5.67114C14.8017 5.90989 14.7857 6.15271 14.7234 6.38534C14.6611 6.61767 14.5533 6.83508 14.407 7.02596C14.2528 7.22736 14.0513 7.37361 13.8269 7.51554L13.8249 7.51685C13.6445 7.62977 13.5434 7.81163 13.5417 7.99536C13.5435 8.09266 13.5696 8.18818 13.6179 8.27271C13.6544 8.33654 13.7027 8.39248 13.7598 8.43807L13.8197 8.48039L13.8262 8.48429C14.0524 8.62663 14.2521 8.77191 14.4063 8.97193L14.407 8.97323C14.5535 9.16421 14.6611 9.382 14.7234 9.6145C14.7857 9.84713 14.8017 10.0899 14.7702 10.3287C14.7431 10.5369 14.67 10.7255 14.5769 10.9153C14.4856 11.1014 14.3582 11.3205 14.2064 11.5833C14.0546 11.8462 13.9288 12.0655 13.8132 12.2376C13.6952 12.4133 13.5685 12.5709 13.4024 12.6985H13.4018C13.2108 12.845 12.993 12.9526 12.7605 13.0149C12.5279 13.0772 12.285 13.0933 12.0463 13.0618H12.0456C11.7955 13.0284 11.5696 12.9288 11.3314 12.8027L11.3262 12.7994C11.2401 12.7524 11.1431 12.7279 11.045 12.7284C10.9489 12.729 10.8545 12.7534 10.7702 12.7994C10.61 12.8924 10.5019 13.0718 10.4942 13.2857V13.2864C10.4843 13.5558 10.4573 13.8012 10.3614 14.0338L10.3607 14.0344C10.2686 14.2569 10.1339 14.4592 9.96361 14.6295C9.79332 14.7998 9.59104 14.9351 9.36855 15.0273C9.17508 15.1074 8.97503 15.1385 8.76374 15.1529C8.55692 15.167 8.30379 15.1666 8.00006 15.1666C7.69649 15.1666 7.44378 15.167 7.23704 15.1529C7.02575 15.1385 6.8257 15.1074 6.63223 15.0273C6.40972 14.9351 6.20747 14.7998 6.03717 14.6295C5.86706 14.4593 5.73214 14.2574 5.64004 14.0351C5.54253 13.8009 5.51643 13.5539 5.50657 13.2864V13.2857C5.49889 13.0723 5.39122 12.8927 5.22988 12.7987C5.14582 12.753 5.05156 12.729 4.95579 12.7284C4.85768 12.7279 4.76066 12.7524 4.67454 12.7994L4.66933 12.8027C4.43115 12.9288 4.20526 13.0284 3.95514 13.0618H3.95449C3.71574 13.0933 3.47292 13.0772 3.2403 13.0149C3.00774 12.9526 2.78939 12.845 2.59837 12.6985L2.59772 12.6978C2.43234 12.5703 2.30568 12.4132 2.18756 12.2376C2.07201 12.0657 1.94584 11.8468 1.79368 11.5839L1.79303 11.5826C1.64152 11.3197 1.51496 11.1008 1.42389 10.9146C1.33088 10.7245 1.25791 10.5362 1.23053 10.3287C1.19903 10.0899 1.21512 9.84713 1.27741 9.6145C1.33969 9.382 1.44732 9.16421 1.59381 8.97323C1.74799 8.77195 1.94955 8.62617 2.17389 8.48429L2.17585 8.48299C2.35778 8.36914 2.45905 8.18521 2.45905 7.99992C2.45905 7.81478 2.35776 7.63088 2.17519 7.5162L2.17454 7.51554C1.94837 7.37321 1.74867 7.22793 1.59446 7.02792L1.59381 7.02661C1.44732 6.83563 1.33969 6.61784 1.27741 6.38534C1.21512 6.15271 1.19903 5.90989 1.23053 5.67114C1.25763 5.46296 1.33081 5.27435 1.42389 5.08456C1.51521 4.89841 1.64261 4.67934 1.79433 4.41659C1.94642 4.15321 2.07253 3.93433 2.18821 3.76229C2.30632 3.58664 2.43248 3.43004 2.59707 3.30265L2.59902 3.30135C2.98465 3.00561 3.47201 2.87471 3.95384 2.93807H3.95449C4.14261 2.96309 4.31648 3.0258 4.49225 3.10864L4.66933 3.19719L4.67454 3.20044C4.76066 3.24746 4.85767 3.27191 4.95579 3.2714C5.0505 3.27087 5.14328 3.2465 5.22663 3.20174C5.30939 3.15164 5.37899 3.0822 5.4278 2.99862C5.4772 2.91395 5.50424 2.81798 5.50657 2.71997V2.71346L5.51829 2.5162C5.53453 2.32271 5.56743 2.14056 5.63939 1.96607L5.64004 1.96541C5.73215 1.74292 5.86692 1.54066 6.03717 1.37036C6.20747 1.20007 6.40972 1.06471 6.63223 0.972576C6.8257 0.892444 7.02575 0.861321 7.23704 0.846925C7.44378 0.832854 7.69649 0.833253 8.00006 0.833253ZM9.50006 7.99992C9.50006 7.17149 8.82849 6.49992 8.00006 6.49992C7.17177 6.50008 6.50006 7.17159 6.50006 7.99992C6.50006 8.82825 7.17177 9.49976 8.00006 9.49992C8.82849 9.49992 9.50006 8.82835 9.50006 7.99992ZM3.45905 7.99992C3.45905 8.55787 3.15547 9.04769 2.70775 9.3287C2.50433 9.45735 2.4292 9.52674 2.38743 9.5813H2.38678C2.32015 9.66815 2.27186 9.76788 2.24355 9.87362C2.21529 9.97929 2.20776 10.0894 2.22207 10.1978L2.23053 10.2441C2.24313 10.2959 2.26921 10.3666 2.32233 10.4752C2.39497 10.6236 2.50083 10.8082 2.65892 11.0826C2.81801 11.3575 2.92525 11.5422 3.01764 11.6796C3.10752 11.8133 3.16378 11.8718 3.2084 11.9062H3.20775C3.29433 11.9725 3.39345 12.0205 3.49876 12.0487C3.60429 12.077 3.71466 12.0844 3.82298 12.0702L3.88223 12.0585C3.92683 12.0466 3.98372 12.0255 4.06322 11.9882L4.20124 11.9185C4.4343 11.7926 4.69535 11.7271 4.96035 11.7284C5.19418 11.7296 5.42467 11.7828 5.63483 11.8834L5.72402 11.9296L5.73053 11.9335C6.21241 12.2129 6.48669 12.7194 6.50592 13.2493C6.51252 13.4283 6.52665 13.5293 6.54433 13.595L6.56321 13.651L6.56387 13.6523C6.60572 13.7533 6.66692 13.8451 6.7442 13.9224C6.82163 13.9999 6.91386 14.0616 7.01504 14.1034C7.06623 14.1246 7.14429 14.1439 7.30475 14.1549C7.46968 14.1661 7.68273 14.1666 8.00006 14.1666C8.31756 14.1666 8.53105 14.1661 8.69603 14.1549C8.8565 14.1439 8.93456 14.1246 8.98574 14.1034L9.05996 14.0683C9.1321 14.0297 9.19852 13.9805 9.25657 13.9224C9.33385 13.8451 9.39507 13.7533 9.43691 13.6523L9.45579 13.5956C9.47378 13.5287 9.4883 13.4272 9.49486 13.2493C9.51407 12.7199 9.78792 12.2119 10.2709 11.9329L10.2768 11.9296C10.51 11.7991 10.7731 11.7298 11.0404 11.7284C11.3052 11.7271 11.566 11.7927 11.7989 11.9185H11.7995C12.0094 12.0297 12.1079 12.0609 12.1778 12.0702H12.1771C12.2856 12.0845 12.3957 12.077 12.5014 12.0487C12.607 12.0205 12.7063 11.972 12.793 11.9055C12.837 11.8718 12.8933 11.814 12.9831 11.6803C13.0754 11.5429 13.1818 11.3582 13.3406 11.0833C13.4995 10.808 13.6062 10.6237 13.6791 10.4752C13.7499 10.3308 13.7717 10.2537 13.7787 10.1991V10.1978C13.793 10.0894 13.7855 9.97928 13.7572 9.87362C13.7289 9.76788 13.68 9.66815 13.6133 9.5813V9.58065C13.5705 9.52565 13.4946 9.45774 13.2995 9.33456L13.2156 9.27922C13.0247 9.14563 12.8653 8.97117 12.7494 8.76815C12.617 8.53609 12.5455 8.27425 12.5417 8.00708V7.99992L12.545 7.89575C12.5801 7.38051 12.8737 6.93241 13.2943 6.66919C13.4964 6.54129 13.5717 6.47293 13.6133 6.41854L13.6602 6.35083C13.7034 6.28136 13.736 6.20551 13.7572 6.12622C13.7784 6.04692 13.7879 5.96514 13.7852 5.88338L13.7787 5.802C13.7714 5.74686 13.7492 5.66931 13.6784 5.52466C13.6058 5.37621 13.4999 5.19159 13.3419 4.91724L13.1374 4.56698C13.0793 4.46934 13.0293 4.38893 12.9831 4.32023C12.8937 4.18726 12.8375 4.12881 12.793 4.09432C12.7063 4.02783 12.607 3.97937 12.5014 3.95109C12.3957 3.92283 12.2856 3.91467 12.1771 3.92896C12.1079 3.93829 12.0103 3.96885 11.8041 4.07739L11.8048 4.07804C11.5703 4.20595 11.3069 4.27277 11.0398 4.2714C10.7727 4.27004 10.5105 4.20047 10.2774 4.07023L10.2709 4.06698L10.265 4.06307C10.0356 3.92627 9.84442 3.73382 9.7097 3.50318C9.57499 3.27247 9.5006 3.01114 9.4942 2.74406V2.74341C9.48523 2.50946 9.46358 2.41127 9.43756 2.34888L9.43691 2.34758C9.39507 2.24658 9.33385 2.15472 9.25657 2.07739C9.19852 2.01934 9.1321 1.97012 9.05996 1.93156L8.98574 1.8964C8.93456 1.87521 8.8565 1.85591 8.69603 1.84497C8.53105 1.83373 8.31756 1.83325 8.00006 1.83325C7.68273 1.83325 7.46968 1.83374 7.30475 1.84497C7.14429 1.85591 7.06623 1.87521 7.01504 1.8964C6.91386 1.93828 6.82163 1.99997 6.7442 2.07739C6.68618 2.13545 6.63756 2.20188 6.59902 2.27401L6.56387 2.34758C6.53724 2.41225 6.51465 2.51422 6.50592 2.75057L6.50527 2.74992C6.49794 3.01495 6.4248 3.27416 6.29108 3.50318C6.15636 3.73382 5.96516 3.92627 5.73574 4.06307L5.72988 4.06698L5.72402 4.07023C5.49073 4.2007 5.22764 4.27004 4.96035 4.2714C4.69525 4.27272 4.43437 4.20672 4.20124 4.08065V4.0813C3.99154 3.97021 3.89279 3.93896 3.82233 3.92961V3.92896C3.6036 3.90044 3.38214 3.9607 3.2071 4.09497C3.16269 4.12978 3.10618 4.18856 3.01764 4.32023C2.92537 4.45747 2.81869 4.64215 2.66022 4.91659C2.5013 5.19181 2.39453 5.37615 2.32168 5.52466C2.25085 5.66904 2.22911 5.74618 2.22207 5.8007V5.802C2.20776 5.91045 2.21529 6.02055 2.24355 6.12622C2.27175 6.23152 2.31993 6.33065 2.38613 6.41724C2.42917 6.47308 2.5056 6.54237 2.7071 6.66919L2.78913 6.72453C3.19166 7.01228 3.45905 7.47605 3.45905 7.99992ZM10.5001 7.99992C10.5001 9.38063 9.38078 10.4999 8.00006 10.4999C6.61949 10.4998 5.50006 9.38053 5.50006 7.99992C5.50006 6.61931 6.61949 5.50008 8.00006 5.49992C9.38078 5.49992 10.5001 6.61921 10.5001 7.99992Z" fill="#717E8C"/>
</svg>
