<svg width="16" height="16" viewBox="0 0 16 16" fill="none" xmlns="http://www.w3.org/2000/svg">
<path fill-rule="evenodd" clip-rule="evenodd" d="M9.37002 1.5C10.5953 1.5 11.566 1.5 12.3253 1.602C13.1067 1.70733 13.7393 1.92867 14.2387 2.42733C14.7373 2.92667 14.9587 3.55933 15.064 4.34067C15.166 5.10067 15.166 6.07067 15.166 7.296V8.704C15.166 9.92933 15.166 10.9 15.064 11.6593C14.9587 12.4407 14.7373 13.0733 14.2387 13.5727C13.7393 14.0713 13.1067 14.2927 12.3253 14.398C11.5653 14.5 10.5953 14.5 9.37002 14.5H6.02202L5.97402 14.4993C5.05135 14.4967 4.29202 14.4813 3.67335 14.398C2.89202 14.2927 2.25935 14.0713 1.76002 13.5727C1.26135 13.0733 1.04002 12.4407 0.934682 11.6593C0.832682 10.8993 0.832682 9.92933 0.832682 8.704V7.296C0.832682 6.07067 0.832682 5.1 0.934682 4.34067C1.04002 3.55933 1.26135 2.92667 1.76002 2.42733C2.25935 1.92867 2.89202 1.70733 3.67335 1.602C4.29202 1.51867 5.05135 1.50333 5.97335 1.50067H6.02202L6.62868 1.5H9.37002ZM6.49935 2.5H9.33268C10.604 2.5 11.5067 2.50133 12.1927 2.59333C12.8627 2.68333 13.2493 2.85267 13.5313 3.13467C13.8133 3.41667 13.9827 3.80333 14.0727 4.47333C14.1647 5.15933 14.166 6.062 14.166 7.33333V8.66667C14.166 9.938 14.1647 10.8413 14.0727 11.5267C13.9827 12.1967 13.8133 12.5833 13.5313 12.8653C13.2493 13.1473 12.8627 13.3167 12.192 13.4067C11.5067 13.4987 10.604 13.5 9.33268 13.5H6.49935V2.5ZM5.49935 13.496C4.81002 13.4893 4.26068 13.468 3.80602 13.4067C3.13601 13.3167 2.74935 13.1473 2.46735 12.8653C2.18535 12.5833 2.01602 12.1967 1.92601 11.526C1.83401 10.8413 1.83268 9.938 1.83268 8.66667V7.33333C1.83268 6.062 1.83401 5.15933 1.92601 4.47333C2.01602 3.80333 2.18535 3.41667 2.46735 3.13467C2.74935 2.85267 3.13602 2.68333 3.80668 2.59333C4.26002 2.532 4.81002 2.51133 5.49935 2.504V13.496Z" fill="#717E8C"/>
</svg>
