<svg width="16" height="16" viewBox="0 0 16 16" fill="none" xmlns="http://www.w3.org/2000/svg">
<g clip-path="url(#clip0_2098_933)">
<path fill-rule="evenodd" clip-rule="evenodd" d="M7.96265 0.833252H8.03865C9.57798 0.833252 10.784 0.833252 11.7253 0.959919C12.688 1.08925 13.448 1.35992 14.0447 1.95592C14.6413 2.55259 14.9113 3.31259 15.0406 4.27592C15.1673 5.21659 15.1673 6.42259 15.1673 7.96192V8.03792C15.1673 9.57725 15.1673 10.7833 15.0406 11.7246C14.9113 12.6873 14.6406 13.4473 14.0447 14.0439C13.448 14.6406 12.688 14.9106 11.7247 15.0399C10.784 15.1666 9.57798 15.1666 8.03865 15.1666H7.96265C6.42332 15.1666 5.21732 15.1666 4.27598 15.0399C3.31332 14.9106 2.55332 14.6399 1.95665 14.0439C1.35998 13.4473 1.08998 12.6873 0.960651 11.7239C0.833984 10.7833 0.833984 9.57725 0.833984 8.03792V7.96192C0.833984 6.42259 0.833984 5.21659 0.960651 4.27525C1.08998 3.31259 1.36065 2.55259 1.95665 1.95592C2.55332 1.35925 3.31332 1.08925 4.27665 0.959919C5.21732 0.833252 6.42332 0.833252 7.96265 0.833252ZM4.40932 1.95059C3.55732 2.06525 3.04332 2.28392 2.66398 2.66325C2.28398 3.04325 2.06598 3.55659 1.95132 4.40925C1.83532 5.27592 1.83398 6.41459 1.83398 7.99992C1.83398 9.58525 1.83532 10.7239 1.95132 11.5906C2.06598 12.4433 2.28465 12.9573 2.66398 13.3373C3.04398 13.7166 3.55732 13.9346 4.40998 14.0493C5.27665 14.1653 6.41532 14.1666 8.00065 14.1666C9.58598 14.1666 10.7247 14.1653 11.5913 14.0493C12.444 13.9346 12.958 13.7159 13.338 13.3366C13.7173 12.9566 13.9353 12.4433 14.05 11.5906C14.166 10.7239 14.1673 9.58525 14.1673 7.99992C14.1673 6.41459 14.166 5.27592 14.05 4.40925C13.9353 3.55659 13.7167 3.04259 13.3373 2.66259C12.9573 2.28325 12.444 2.06525 11.5913 1.95059C10.7247 1.83459 9.58598 1.83325 8.00065 1.83325C6.41532 1.83325 5.27598 1.83459 4.40932 1.95059Z" fill="#717E8C"/>
<path fill-rule="evenodd" clip-rule="evenodd" d="M5.33333 3.83325C5.46594 3.83325 5.59312 3.88593 5.68689 3.9797C5.78065 4.07347 5.83333 4.20064 5.83333 4.33325V5.16659H6.66667C6.79927 5.16659 6.92645 5.21926 7.02022 5.31303C7.11399 5.4068 7.16667 5.53398 7.16667 5.66659C7.16667 5.79919 7.11399 5.92637 7.02022 6.02014C6.92645 6.11391 6.79927 6.16659 6.66667 6.16659H5.83333V6.99992C5.83333 7.13253 5.78065 7.2597 5.68689 7.35347C5.59312 7.44724 5.46594 7.49992 5.33333 7.49992C5.20073 7.49992 5.07355 7.44724 4.97978 7.35347C4.88601 7.2597 4.83333 7.13253 4.83333 6.99992V6.16659H4C3.86739 6.16659 3.74021 6.11391 3.64645 6.02014C3.55268 5.92637 3.5 5.79919 3.5 5.66659C3.5 5.53398 3.55268 5.4068 3.64645 5.31303C3.74021 5.21926 3.86739 5.16659 4 5.16659H4.83333V4.33325C4.83333 4.20064 4.88601 4.07347 4.97978 3.9797C5.07355 3.88593 5.20073 3.83325 5.33333 3.83325ZM8.83333 5.66659C8.83333 5.53398 8.88601 5.4068 8.97978 5.31303C9.07355 5.21926 9.20073 5.16659 9.33333 5.16659H12C12.1326 5.16659 12.2598 5.21926 12.3536 5.31303C12.4473 5.4068 12.5 5.53398 12.5 5.66659C12.5 5.79919 12.4473 5.92637 12.3536 6.02014C12.2598 6.11391 12.1326 6.16659 12 6.16659H9.33333C9.20073 6.16659 9.07355 6.11391 8.97978 6.02014C8.88601 5.92637 8.83333 5.79919 8.83333 5.66659ZM8.83333 9.66659C8.83333 9.53398 8.88601 9.4068 8.97978 9.31303C9.07355 9.21926 9.20073 9.16659 9.33333 9.16659H12C12.1326 9.16659 12.2598 9.21926 12.3536 9.31303C12.4473 9.4068 12.5 9.53398 12.5 9.66659C12.5 9.79919 12.4473 9.92637 12.3536 10.0201C12.2598 10.1139 12.1326 10.1666 12 10.1666H9.33333C9.20073 10.1666 9.07355 10.1139 8.97978 10.0201C8.88601 9.92637 8.83333 9.79919 8.83333 9.66659ZM3.98 9.31325C4.07375 9.21962 4.20083 9.16703 4.33333 9.16703C4.46583 9.16703 4.59292 9.21962 4.68667 9.31325L5.33333 9.95992L5.98 9.31325C6.02577 9.26413 6.08098 9.22473 6.14231 9.1974C6.20364 9.17007 6.26985 9.15538 6.33699 9.15419C6.40412 9.15301 6.47081 9.16536 6.53307 9.1905C6.59532 9.21565 6.65188 9.25308 6.69936 9.30056C6.74684 9.34804 6.78427 9.40459 6.80942 9.46685C6.83456 9.52911 6.84691 9.5958 6.84573 9.66293C6.84454 9.73007 6.82985 9.79628 6.80252 9.85761C6.77519 9.91894 6.73579 9.97414 6.68667 10.0199L6.04 10.6666L6.68667 11.3133C6.73579 11.359 6.77519 11.4142 6.80252 11.4756C6.82985 11.5369 6.84454 11.6031 6.84573 11.6702C6.84691 11.7374 6.83456 11.8041 6.80942 11.8663C6.78427 11.9286 6.74684 11.9851 6.69936 12.0326C6.65188 12.0801 6.59532 12.1175 6.53307 12.1427C6.47081 12.1678 6.40412 12.1802 6.33699 12.179C6.26985 12.1778 6.20364 12.1631 6.14231 12.1358C6.08098 12.1084 6.02577 12.069 5.98 12.0199L5.33333 11.3733L4.68667 12.0199C4.59188 12.1082 4.46652 12.1563 4.33698 12.154C4.20745 12.1517 4.08386 12.0993 3.99225 12.0077C3.90064 11.9161 3.84817 11.7925 3.84588 11.6629C3.8436 11.5334 3.89168 11.408 3.98 11.3133L4.62667 10.6666L3.98 10.0199C3.88637 9.92617 3.83377 9.79909 3.83377 9.66659C3.83377 9.53408 3.88637 9.407 3.98 9.31325ZM8.83333 11.6666C8.83333 11.534 8.88601 11.4068 8.97978 11.313C9.07355 11.2193 9.20073 11.1666 9.33333 11.1666H12C12.1326 11.1666 12.2598 11.2193 12.3536 11.313C12.4473 11.4068 12.5 11.534 12.5 11.6666C12.5 11.7992 12.4473 11.9264 12.3536 12.0201C12.2598 12.1139 12.1326 12.1666 12 12.1666H9.33333C9.20073 12.1666 9.07355 12.1139 8.97978 12.0201C8.88601 11.9264 8.83333 11.7992 8.83333 11.6666Z" fill="#717E8C"/>
</g>
<defs>
<clipPath id="clip0_2098_933">
<rect width="16" height="16" fill="white"/>
</clipPath>
</defs>
</svg>
