<svg width="24" height="24" viewBox="0 0 24 24" fill="none" xmlns="http://www.w3.org/2000/svg">
<path fill-rule="evenodd" clip-rule="evenodd" d="M12 22C7.286 22 4.929 22 3.464 20.535C2 19.072 2 16.714 2 12C2 7.286 2 4.929 3.464 3.464C4.93 2 7.286 2 12 2C16.714 2 19.071 2 20.535 3.464C22 4.93 22 7.286 22 12C22 16.714 22 19.071 20.535 20.535C19.072 22 16.714 22 12 22ZM8.75 6.5C8.75 6.30109 8.67098 6.11032 8.53033 5.96967C8.38968 5.82902 8.19891 5.75 8 5.75C7.80109 5.75 7.61032 5.82902 7.46967 5.96967C7.32902 6.11032 7.25 6.30109 7.25 6.5V7.75H6C5.80109 7.75 5.61032 7.82902 5.46967 7.96967C5.32902 8.11032 5.25 8.30109 5.25 8.5C5.25 8.69891 5.32902 8.88968 5.46967 9.03033C5.61032 9.17098 5.80109 9.25 6 9.25H7.25V10.5C7.25 10.6989 7.32902 10.8897 7.46967 11.0303C7.61032 11.171 7.80109 11.25 8 11.25C8.19891 11.25 8.38968 11.171 8.53033 11.0303C8.67098 10.8897 8.75 10.6989 8.75 10.5V9.25H10C10.1989 9.25 10.3897 9.17098 10.5303 9.03033C10.671 8.88968 10.75 8.69891 10.75 8.5C10.75 8.30109 10.671 8.11032 10.5303 7.96967C10.3897 7.82902 10.1989 7.75 10 7.75H8.75V6.5ZM14 7.75C13.8011 7.75 13.6103 7.82902 13.4697 7.96967C13.329 8.11032 13.25 8.30109 13.25 8.5C13.25 8.69891 13.329 8.88968 13.4697 9.03033C13.6103 9.17098 13.8011 9.25 14 9.25H18C18.1989 9.25 18.3897 9.17098 18.5303 9.03033C18.671 8.88968 18.75 8.69891 18.75 8.5C18.75 8.30109 18.671 8.11032 18.5303 7.96967C18.3897 7.82902 18.1989 7.75 18 7.75H14ZM14 13.75C13.8011 13.75 13.6103 13.829 13.4697 13.9697C13.329 14.1103 13.25 14.3011 13.25 14.5C13.25 14.6989 13.329 14.8897 13.4697 15.0303C13.6103 15.171 13.8011 15.25 14 15.25H18C18.1989 15.25 18.3897 15.171 18.5303 15.0303C18.671 14.8897 18.75 14.6989 18.75 14.5C18.75 14.3011 18.671 14.1103 18.5303 13.9697C18.3897 13.829 18.1989 13.75 18 13.75H14ZM7.03 13.97C6.88783 13.8375 6.69978 13.7654 6.50548 13.7688C6.31118 13.7723 6.12579 13.851 5.98838 13.9884C5.85097 14.1258 5.77225 14.3112 5.76883 14.5055C5.7654 14.6998 5.83752 14.8878 5.97 15.03L6.94 16L5.97 16.97C5.89631 17.0387 5.83721 17.1215 5.79622 17.2135C5.75523 17.3055 5.73319 17.4048 5.73141 17.5055C5.72963 17.6062 5.74816 17.7062 5.78588 17.7996C5.8236 17.893 5.87974 17.9778 5.95096 18.049C6.02218 18.1203 6.10701 18.1764 6.2004 18.2141C6.29379 18.2518 6.39382 18.2704 6.49452 18.2686C6.59523 18.2668 6.69454 18.2448 6.78654 18.2038C6.87854 18.1628 6.96134 18.1037 7.03 18.03L8 17.06L8.97 18.03C9.03866 18.1037 9.12146 18.1628 9.21346 18.2038C9.30546 18.2448 9.40478 18.2668 9.50548 18.2686C9.60618 18.2704 9.70621 18.2518 9.7996 18.2141C9.89299 18.1764 9.97782 18.1203 10.049 18.049C10.1203 17.9778 10.1764 17.893 10.2141 17.7996C10.2518 17.7062 10.2704 17.6062 10.2686 17.5055C10.2668 17.4048 10.2448 17.3055 10.2038 17.2135C10.1628 17.1215 10.1037 17.0387 10.03 16.97L9.06 16L10.03 15.03C10.1037 14.9613 10.1628 14.8785 10.2038 14.7865C10.2448 14.6945 10.2668 14.5952 10.2686 14.4945C10.2704 14.3938 10.2518 14.2938 10.2141 14.2004C10.1764 14.107 10.1203 14.0222 10.049 13.951C9.97782 13.8797 9.89299 13.8236 9.7996 13.7859C9.70621 13.7482 9.60618 13.7296 9.50548 13.7314C9.40478 13.7332 9.30546 13.7552 9.21346 13.7962C9.12146 13.8372 9.03866 13.8963 8.97 13.97L8 14.94L7.03 13.97ZM14 16.75C13.8011 16.75 13.6103 16.829 13.4697 16.9697C13.329 17.1103 13.25 17.3011 13.25 17.5C13.25 17.6989 13.329 17.8897 13.4697 18.0303C13.6103 18.171 13.8011 18.25 14 18.25H18C18.1989 18.25 18.3897 18.171 18.5303 18.0303C18.671 17.8897 18.75 17.6989 18.75 17.5C18.75 17.3011 18.671 17.1103 18.5303 16.9697C18.3897 16.829 18.1989 16.75 18 16.75H14Z" fill="#2D60FF"/>
</svg>
