<svg width="16" height="16" viewBox="0 0 16 16" fill="none" xmlns="http://www.w3.org/2000/svg">
<path d="M8.00065 4.16675C8.13326 4.16675 8.26044 4.21943 8.3542 4.31319C8.44797 4.40696 8.50065 4.53414 8.50065 4.66675V8.66675C8.50065 8.79936 8.44797 8.92653 8.3542 9.0203C8.26044 9.11407 8.13326 9.16675 8.00065 9.16675C7.86804 9.16675 7.74087 9.11407 7.6471 9.0203C7.55333 8.92653 7.50065 8.79936 7.50065 8.66675V4.66675C7.50065 4.53414 7.55333 4.40696 7.6471 4.31319C7.74087 4.21943 7.86804 4.16675 8.00065 4.16675ZM8.66732 10.6667C8.66732 10.8436 8.59708 11.0131 8.47206 11.1382C8.34703 11.2632 8.17746 11.3334 8.00065 11.3334C7.82384 11.3334 7.65427 11.2632 7.52925 11.1382C7.40422 11.0131 7.33398 10.8436 7.33398 10.6667C7.33398 10.4899 7.40422 10.3204 7.52925 10.1953C7.65427 10.0703 7.82384 10.0001 8.00065 10.0001C8.17746 10.0001 8.34703 10.0703 8.47206 10.1953C8.59708 10.3204 8.66732 10.4899 8.66732 10.6667Z" fill="#717E8C"/>
<path fill-rule="evenodd" clip-rule="evenodd" d="M8 0.833252C7.53 0.833252 7.10133 0.962585 6.63267 1.17992C6.17933 1.39125 5.65333 1.70192 4.99667 2.09125L4.494 2.38859C3.83667 2.77792 3.312 3.08859 2.90733 3.38592C2.48867 3.69392 2.16733 4.00858 1.93533 4.42125C1.70333 4.83392 1.59867 5.27392 1.54867 5.79658C1.5 6.30325 1.5 6.92392 1.5 7.70392V8.29592C1.5 9.07592 1.5 9.69592 1.54867 10.2026C1.59867 10.7259 1.70333 11.1666 1.93533 11.5786C2.168 11.9913 2.48867 12.3059 2.90733 12.6139C3.312 12.9113 3.83667 13.2219 4.494 13.6113L4.99667 13.9086C5.65333 14.2979 6.17867 14.6086 6.63267 14.8199C7.10133 15.0373 7.53 15.1666 8 15.1666C8.47 15.1666 8.89867 15.0373 9.36733 14.8199C9.82067 14.6086 10.3467 14.2979 11.0033 13.9086L11.506 13.6113C12.1633 13.2219 12.688 12.9113 13.0927 12.6139C13.5113 12.3059 13.8327 11.9913 14.0647 11.5786C14.2967 11.1659 14.4013 10.7259 14.4513 10.2033C14.5 9.69658 14.5 9.07592 14.5 8.29658V7.70392C14.5 6.92392 14.5 6.30392 14.4513 5.79725C14.4013 5.27392 14.2967 4.83325 14.0647 4.42125C13.832 4.00858 13.5113 3.69392 13.0927 3.38592C12.688 3.08859 12.1633 2.77792 11.506 2.38859L11.0033 2.09125C10.3467 1.70192 9.82133 1.39125 9.36733 1.17992C8.89867 0.962585 8.47 0.833252 8 0.833252ZM5.48333 2.96459C6.168 2.55925 6.65067 2.27459 7.054 2.08725C7.44733 1.90459 7.72733 1.83325 8 1.83325C8.27267 1.83325 8.55333 1.90459 8.94667 2.08659C9.34933 2.27459 9.832 2.55992 10.5167 2.96459L10.974 3.23592C11.6587 3.64125 12.1407 3.92725 12.5007 4.19192C12.8513 4.44992 13.054 4.66525 13.1927 4.91192C13.3327 5.15925 13.4127 5.44925 13.456 5.89192C13.4993 6.34525 13.5 6.91858 13.5 7.72925V8.27059C13.5 9.08125 13.5 9.65392 13.456 10.1073C13.4133 10.5506 13.3327 10.8406 13.1927 11.0879C13.054 11.3346 12.8513 11.5499 12.5007 11.8079C12.1407 12.0726 11.6587 12.3586 10.974 12.7639L10.5167 13.0353C9.832 13.4406 9.34933 13.7253 8.946 13.9126C8.55267 14.0953 8.27267 14.1666 8 14.1666C7.72733 14.1666 7.44667 14.0953 7.05333 13.9133C6.65067 13.7253 6.168 13.4399 5.48333 13.0353L5.026 12.7639C4.34133 12.3586 3.85933 12.0726 3.49933 11.8079C3.14867 11.5499 2.946 11.3346 2.80733 11.0879C2.66733 10.8406 2.58667 10.5506 2.544 10.1079C2.50067 9.65458 2.5 9.08125 2.5 8.27059V7.72925C2.5 6.91858 2.5 6.34592 2.544 5.89258C2.58667 5.44925 2.66733 5.15925 2.80667 4.91192C2.946 4.66525 3.14867 4.44992 3.5 4.19192C3.86 3.92725 4.34133 3.64125 5.02667 3.23592L5.48333 2.96459Z" fill="#717E8C"/>
</svg>
