<svg width="16" height="16" viewBox="0 0 16 16" fill="none" xmlns="http://www.w3.org/2000/svg">
<path fill-rule="evenodd" clip-rule="evenodd" d="M6.16732 12.9999C6.16732 12.8673 6.22 12.7401 6.31376 12.6464C6.40753 12.5526 6.53471 12.4999 6.66732 12.4999H9.33398C9.46659 12.4999 9.59377 12.5526 9.68754 12.6464C9.78131 12.7401 9.83398 12.8673 9.83398 12.9999C9.83398 13.1325 9.78131 13.2597 9.68754 13.3535C9.59377 13.4472 9.46659 13.4999 9.33398 13.4999H6.66732C6.53471 13.4999 6.40753 13.4472 6.31376 13.3535C6.22 13.2597 6.16732 13.1325 6.16732 12.9999ZM6.61198 14.6666C6.61198 14.534 6.66466 14.4068 6.75843 14.313C6.8522 14.2193 6.97938 14.1666 7.11198 14.1666H8.88932C9.02193 14.1666 9.1491 14.2193 9.24287 14.313C9.33664 14.4068 9.38932 14.534 9.38932 14.6666C9.38932 14.7992 9.33664 14.9264 9.24287 15.0201C9.1491 15.1139 9.02193 15.1666 8.88932 15.1666H7.11198C6.97938 15.1666 6.8522 15.1139 6.75843 15.0201C6.66466 14.9264 6.61198 14.7992 6.61198 14.6666ZM2.83398 5.47859C2.83398 2.87525 5.20332 0.833252 8.00065 0.833252C10.798 0.833252 13.1673 2.87525 13.1673 5.47859V5.48058C13.1607 6.95192 12.528 8.41725 11.404 9.48325L11.4027 9.48458L10.6673 10.1773C10.6151 10.2268 10.5735 10.2865 10.545 10.3526C10.5164 10.4187 10.5016 10.4899 10.5013 10.5619C10.5013 10.8991 10.3674 11.2225 10.129 11.4609C9.89053 11.6993 9.56716 11.8333 9.22998 11.8333H6.77265C6.43547 11.8333 6.1121 11.6993 5.87368 11.4609C5.63526 11.2225 5.50132 10.8991 5.50132 10.5619C5.50096 10.4899 5.48601 10.4186 5.45736 10.3525C5.42872 10.2864 5.38697 10.2268 5.33465 10.1773L4.59932 9.48392L4.59732 9.48325C3.47398 8.41658 2.84065 6.95192 2.83398 5.47992V5.47859ZM3.83398 5.47725C3.83932 6.66792 4.35398 7.87392 5.28465 8.75725L6.01998 9.44925C6.32665 9.73792 6.50065 10.1406 6.50065 10.5619C6.50065 10.7119 6.62198 10.8333 6.77198 10.8333H9.22932C9.30128 10.8333 9.37029 10.8047 9.42118 10.7538C9.47206 10.7029 9.50065 10.6339 9.50065 10.5619C9.50065 10.1406 9.67465 9.73792 9.98132 9.44858L10.716 8.75725C11.6467 7.87392 12.162 6.66792 12.1673 5.47725C12.1667 3.53325 10.3573 1.83325 8.00065 1.83325C5.64398 1.83325 3.83465 3.53325 3.83398 5.47725Z" fill="#717E8C"/>
</svg>
