<svg width="16" height="16" viewBox="0 0 16 16" fill="none" xmlns="http://www.w3.org/2000/svg">
<path fill-rule="evenodd" clip-rule="evenodd" d="M6.16732 12.4727C6.16732 12.1927 6.39132 11.966 6.66732 11.966H9.33398C9.60998 11.966 9.83398 12.1927 9.83398 12.4727C9.83398 12.7527 9.60998 12.9793 9.33398 12.9793H6.66732C6.60122 12.9789 6.53585 12.9654 6.47495 12.9397C6.41405 12.914 6.35881 12.8766 6.31238 12.8296C6.26595 12.7825 6.22924 12.7268 6.20435 12.6655C6.17946 12.6043 6.16688 12.5388 6.16732 12.4727ZM6.61198 14.1607C6.61198 13.8807 6.83532 13.654 7.11198 13.654H8.88932C9.16598 13.654 9.38932 13.8807 9.38932 14.1607C9.38976 14.2267 9.37717 14.2922 9.35227 14.3534C9.32737 14.4146 9.29065 14.4703 9.24422 14.5173C9.19778 14.5643 9.14253 14.6017 9.08163 14.6273C9.02074 14.6529 8.95539 14.6663 8.88932 14.6667H7.11198C7.04589 14.6662 6.98052 14.6528 6.91962 14.6271C6.85872 14.6014 6.80348 14.5639 6.75705 14.5169C6.71062 14.4698 6.67391 14.4141 6.64902 14.3529C6.62413 14.2916 6.61155 14.2268 6.61198 14.1607Z" fill="#2D60FF"/>
<path d="M4.94065 9.21866L5.67732 9.92066C5.88398 10.1173 6.00065 10.392 6.00065 10.6787C6.00065 11.11 6.34598 11.46 6.77198 11.46H9.22932C9.65532 11.46 10.0007 11.11 10.0007 10.6787C10.0007 10.392 10.118 10.1173 10.324 9.92066L11.06 9.21866C12.088 8.232 12.6613 6.93533 12.6667 5.588L12.6673 5.53133C12.6673 3.228 10.578 1.33333 8.00065 1.33333C5.42332 1.33333 3.33398 3.228 3.33398 5.53133V5.588C3.33998 6.93533 3.91398 8.232 4.94065 9.21866Z" fill="#2D60FF"/>
</svg>
