<svg width="16" height="16" viewBox="0 0 16 16" fill="none" xmlns="http://www.w3.org/2000/svg">
<path fill-rule="evenodd" clip-rule="evenodd" d="M6.00065 0.833252C5.1608 0.833252 4.35534 1.16688 3.76148 1.76075C3.16761 2.35461 2.83398 3.16007 2.83398 3.99992C2.83398 4.83977 3.16761 5.64523 3.76148 6.23909C4.35534 6.83296 5.1608 7.16659 6.00065 7.16659C6.8405 7.16659 7.64596 6.83296 8.23982 6.23909C8.83369 5.64523 9.16732 4.83977 9.16732 3.99992C9.16732 3.16007 8.83369 2.35461 8.23982 1.76075C7.64596 1.16688 6.8405 0.833252 6.00065 0.833252ZM3.83398 3.99992C3.83398 3.42528 4.06226 2.87418 4.46859 2.46785C4.87492 2.06153 5.42602 1.83325 6.00065 1.83325C6.57529 1.83325 7.12639 2.06153 7.53272 2.46785C7.93904 2.87418 8.16732 3.42528 8.16732 3.99992C8.16732 4.57455 7.93904 5.12565 7.53272 5.53198C7.12639 5.93831 6.57529 6.16659 6.00065 6.16659C5.42602 6.16659 4.87492 5.93831 4.46859 5.53198C4.06226 5.12565 3.83398 4.57455 3.83398 3.99992Z" fill="#717E8C"/>
<path d="M10 1.5C9.86739 1.5 9.74022 1.55268 9.64645 1.64645C9.55268 1.74021 9.5 1.86739 9.5 2C9.5 2.13261 9.55268 2.25979 9.64645 2.35355C9.74022 2.44732 9.86739 2.5 10 2.5C10.3978 2.5 10.7794 2.65804 11.0607 2.93934C11.342 3.22064 11.5 3.60218 11.5 4C11.5 4.39782 11.342 4.77936 11.0607 5.06066C10.7794 5.34196 10.3978 5.5 10 5.5C9.86739 5.5 9.74022 5.55268 9.64645 5.64645C9.55268 5.74022 9.5 5.86739 9.5 6C9.5 6.13261 9.55268 6.25979 9.64645 6.35355C9.74022 6.44732 9.86739 6.5 10 6.5C10.663 6.5 11.2989 6.23661 11.7678 5.76777C12.2366 5.29893 12.5 4.66304 12.5 4C12.5 3.33696 12.2366 2.70107 11.7678 2.23223C11.2989 1.76339 10.663 1.5 10 1.5Z" fill="#717E8C"/>
<path fill-rule="evenodd" clip-rule="evenodd" d="M2.45265 9.01342C3.38598 8.48008 4.64132 8.16675 6.00065 8.16675C7.35998 8.16675 8.61532 8.48008 9.54865 9.01342C10.4673 9.53875 11.1673 10.3401 11.1673 11.3334C11.1673 12.3267 10.4673 13.1281 9.54865 13.6534C8.61532 14.1867 7.35998 14.5001 6.00065 14.5001C4.64132 14.5001 3.38598 14.1867 2.45265 13.6534C1.53398 13.1281 0.833984 12.3267 0.833984 11.3334C0.833984 10.3401 1.53398 9.53875 2.45265 9.01342ZM2.94865 9.88208C2.17865 10.3221 1.83398 10.8534 1.83398 11.3334C1.83398 11.8134 2.17865 12.3447 2.94865 12.7847C3.70465 13.2167 4.78265 13.5001 6.00065 13.5001C7.21865 13.5001 8.29665 13.2167 9.05265 12.7847C9.82265 12.3447 10.1673 11.8127 10.1673 11.3334C10.1673 10.8541 9.82265 10.3221 9.05265 9.88208C8.29665 9.45008 7.21865 9.16675 6.00065 9.16675C4.78265 9.16675 3.70465 9.45008 2.94865 9.88208Z" fill="#717E8C"/>
<path d="M12.1068 8.84476C11.9772 8.81647 11.8417 8.84082 11.7301 8.91246C11.6184 8.9841 11.5398 9.09716 11.5115 9.22676C11.4832 9.35636 11.5076 9.49189 11.5792 9.60354C11.6508 9.71519 11.7639 9.7938 11.8935 9.82209C12.4215 9.93743 12.8435 10.1368 13.1222 10.3648C13.4008 10.5928 13.5002 10.8161 13.5002 11.0001C13.5002 11.1668 13.4202 11.3634 13.1982 11.5694C12.9748 11.7768 12.6315 11.9681 12.1895 12.1014C12.1266 12.1203 12.068 12.1515 12.0172 12.193C11.9663 12.2345 11.9241 12.2857 11.893 12.3435C11.8619 12.4014 11.8425 12.4648 11.8359 12.5302C11.8293 12.5955 11.8356 12.6615 11.8545 12.7244C11.8734 12.7873 11.9045 12.8459 11.9461 12.8968C11.9876 12.9476 12.0388 12.9898 12.0966 13.021C12.1545 13.0521 12.2179 13.0715 12.2832 13.0781C12.3486 13.0847 12.4146 13.0783 12.4775 13.0594C13.0262 12.8941 13.5162 12.6388 13.8788 12.3021C14.2428 11.9641 14.5002 11.5194 14.5002 11.0001C14.5002 10.4234 14.1842 9.94143 13.7555 9.59076C13.3262 9.23943 12.7482 8.98543 12.1068 8.84476Z" fill="#717E8C"/>
</svg>
